<svg xmlns="http://www.w3.org/2000/svg" xmlns:xlink="http://www.w3.org/1999/xlink" width="500" zoomAndPan="magnify" viewBox="0 0 375 374.999991" height="500" preserveAspectRatio="xMidYMid meet" version="1.0"><defs><g/><clipPath id="id1"><path d="M 178 190 L 214.816406 190 L 214.816406 223 L 178 223 Z M 178 190 " clip-rule="nonzero"/></clipPath><clipPath id="id2"><path d="M 84.316406 213 L 91 213 L 91 219 L 84.316406 219 Z M 84.316406 213 " clip-rule="nonzero"/></clipPath><clipPath id="id3"><path d="M 94 239 L 100 239 L 100 245.566406 L 94 245.566406 Z M 94 239 " clip-rule="nonzero"/></clipPath><clipPath id="id4"><path d="M 152 116.566406 L 187 116.566406 L 187 167 L 152 167 Z M 152 116.566406 " clip-rule="nonzero"/></clipPath></defs><rect x="-37.5" width="450" fill="#ffffff" y="-37.499999" height="449.999989" fill-opacity="1"/><rect x="-37.5" width="450" fill="#000000" y="-37.499999" height="449.999989" fill-opacity="1"/><rect x="-37.5" width="450" fill="#ffffff" y="-37.499999" height="449.999989" fill-opacity="1"/><rect x="-37.5" width="450" fill="#000000" y="-37.499999" height="449.999989" fill-opacity="1"/><path fill="#8f27ad" d="M 127.945312 174.890625 L 162.867188 194.59375 C 163.4375 194.917969 164.101562 194.953125 164.703125 194.683594 C 165.285156 194.429688 165.707031 193.929688 165.851562 193.320312 C 166.941406 188.746094 165.410156 185.355469 161.175781 182.964844 L 138.746094 170.304688 C 136.964844 169.300781 135.28125 168.800781 133.679688 168.800781 C 131.472656 168.800781 129.425781 169.753906 127.492188 171.671875 C 127.042969 172.113281 126.832031 172.726562 126.917969 173.363281 C 127.007812 174.011719 127.382812 174.570312 127.945312 174.890625 " fill-opacity="1" fill-rule="nonzero"/><path fill="#8f27ad" d="M 162.96875 227.390625 C 157.378906 229.828125 153.640625 229.042969 151.480469 227.957031 C 148.949219 226.679688 147.222656 224.332031 146.5 221.183594 C 145.207031 215.574219 152.792969 201.851562 156.195312 196.082031 L 149.355469 192.21875 C 146.699219 196.621094 140.203125 207.574219 138.335938 212.265625 L 137.996094 213.101562 C 134.660156 221.359375 131.902344 230.511719 141.417969 234.601562 C 154.21875 240.101562 163.894531 234.78125 166.539062 232.269531 C 167.824219 231.054688 167.808594 229.070312 167.058594 227.933594 C 166.078125 226.445312 164.289062 226.820312 162.96875 227.390625 " fill-opacity="1" fill-rule="nonzero"/><path fill="#8f27ad" d="M 133.761719 211.386719 L 134.097656 210.570312 C 136.09375 205.558594 142.621094 194.542969 145.371094 189.96875 L 138.804688 186.265625 C 135.265625 190.621094 124.992188 203.253906 121.355469 207.636719 C 117.484375 212.308594 113.386719 220.066406 114.5625 226.574219 C 115.183594 229.988281 117.257812 232.726562 120.734375 234.722656 C 127.667969 238.691406 132.898438 237.960938 135.953125 236.757812 C 126.335938 229.785156 131.449219 217.117188 133.761719 211.386719 " fill-opacity="1" fill-rule="nonzero"/><path fill="#8f27ad" d="M 117.84375 204.710938 C 121.3125 200.523438 130.851562 188.800781 134.765625 183.984375 L 129.117188 180.796875 L 123.828125 187.277344 C 121.609375 189.980469 118.035156 192.769531 114.242188 195.714844 C 106.609375 201.640625 97.964844 208.363281 99.085938 215.375 C 99.480469 217.824219 100.449219 219.476562 102.035156 220.4375 C 104.5625 221.945312 108.132812 221.460938 110.046875 221.027344 C 110.875 215.675781 113.714844 209.695312 117.84375 204.710938 " fill-opacity="1" fill-rule="nonzero"/><g clip-path="url(#id1)"><path fill="#8f27ad" d="M 213.046875 190.171875 C 211.875 189.707031 210.546875 190.28125 210.082031 191.457031 C 202.777344 209.957031 180.101562 218.015625 179.875 218.09375 C 178.679688 218.507812 178.054688 219.816406 178.464844 221.003906 C 178.789062 221.949219 179.671875 222.550781 180.617188 222.550781 C 180.863281 222.550781 181.121094 222.503906 181.359375 222.421875 C 182.378906 222.070312 206.242188 213.617188 214.328125 193.144531 C 214.789062 191.964844 214.21875 190.636719 213.046875 190.171875 " fill-opacity="1" fill-rule="nonzero"/></g><path fill="#8f27ad" d="M 197.476562 197.761719 C 198.289062 196.796875 198.164062 195.351562 197.195312 194.539062 C 196.234375 193.722656 194.785156 193.859375 193.980469 194.820312 C 185.359375 205.109375 172.519531 208.554688 172.386719 208.585938 C 171.167969 208.90625 170.441406 210.152344 170.753906 211.375 C 171.019531 212.40625 171.945312 213.09375 172.957031 213.09375 C 173.148438 213.09375 173.339844 213.066406 173.527344 213.015625 C 174.113281 212.871094 187.890625 209.210938 197.476562 197.761719 " fill-opacity="1" fill-rule="nonzero"/><path fill="#8f27ad" d="M 101.742188 229.351562 L 100.328125 229.351562 C 99.066406 229.351562 98.042969 230.378906 98.042969 231.640625 C 98.042969 232.90625 99.066406 233.929688 100.328125 233.929688 L 101.742188 233.929688 C 103.003906 233.929688 104.023438 232.90625 104.023438 231.640625 C 104.023438 230.378906 103.003906 229.351562 101.742188 229.351562 " fill-opacity="1" fill-rule="nonzero"/><path fill="#8f27ad" d="M 109.15625 237.261719 L 108.128906 238.078125 C 107.144531 238.863281 106.980469 240.308594 107.773438 241.292969 C 108.222656 241.859375 108.886719 242.152344 109.554688 242.152344 C 110.054688 242.152344 110.558594 241.992188 110.984375 241.652344 L 112.007812 240.835938 C 112.988281 240.042969 113.148438 238.597656 112.367188 237.617188 C 111.574219 236.628906 110.140625 236.46875 109.15625 237.261719 " fill-opacity="1" fill-rule="nonzero"/><g clip-path="url(#id2)"><path fill="#8f27ad" d="M 88.015625 213.933594 L 86.582031 213.933594 C 85.324219 213.933594 84.300781 214.960938 84.300781 216.222656 C 84.300781 217.488281 85.324219 218.507812 86.582031 218.507812 L 88.015625 218.507812 C 89.28125 218.507812 90.300781 217.488281 90.300781 216.222656 C 90.300781 214.960938 89.28125 213.933594 88.015625 213.933594 " fill-opacity="1" fill-rule="nonzero"/></g><path fill="#8f27ad" d="M 88.015625 225.652344 C 86.757812 225.652344 85.734375 226.679688 85.734375 227.941406 L 85.734375 229.175781 C 85.734375 230.441406 86.757812 231.460938 88.015625 231.460938 C 89.28125 231.460938 90.300781 230.441406 90.300781 229.175781 L 90.300781 227.941406 C 90.300781 226.679688 89.28125 225.652344 88.015625 225.652344 " fill-opacity="1" fill-rule="nonzero"/><g clip-path="url(#id3)"><path fill="#8f27ad" d="M 95.761719 240.035156 L 94.527344 241.882812 C 93.828125 242.933594 94.109375 244.355469 95.160156 245.054688 C 95.546875 245.320312 95.992188 245.445312 96.421875 245.445312 C 97.164062 245.445312 97.882812 245.089844 98.328125 244.425781 L 99.558594 242.578125 C 100.261719 241.523438 99.976562 240.109375 98.929688 239.402344 C 97.875 238.695312 96.460938 238.984375 95.761719 240.035156 " fill-opacity="1" fill-rule="nonzero"/></g><g clip-path="url(#id4)"><path fill="#8f27ad" d="M 184.535156 128.75 C 184.617188 128.625 184.703125 128.503906 184.808594 128.398438 C 185.28125 127.902344 185.613281 127.46875 185.859375 127.027344 C 187.738281 123.683594 186.550781 119.429688 183.214844 117.542969 C 183.011719 117.425781 182.796875 117.363281 182.585938 117.273438 C 181.042969 117.765625 180.140625 119.210938 179.234375 121.003906 C 179.035156 121.40625 178.84375 121.777344 178.660156 122.082031 C 177.546875 123.9375 169.828125 138.660156 169.75 138.804688 C 169.546875 139.191406 169.148438 139.417969 168.738281 139.417969 C 168.558594 139.417969 168.378906 139.371094 168.207031 139.285156 C 167.648438 138.992188 167.4375 138.296875 167.730469 137.738281 C 168.050781 137.128906 175.558594 122.8125 176.703125 120.902344 C 176.859375 120.636719 177.023438 120.3125 177.199219 119.964844 C 177.679688 119.027344 178.363281 117.738281 179.398438 116.679688 C 177.117188 116.808594 174.953125 118.058594 173.746094 120.195312 L 152.628906 162.316406 L 160.453125 166.738281 L 184.535156 128.75 " fill-opacity="1" fill-rule="nonzero"/></g><path fill="#8f27ad" d="M 158.132812 170.675781 L 150.480469 166.359375 L 148.222656 170.40625 L 155.898438 174.734375 L 158.132812 170.675781 " fill-opacity="1" fill-rule="nonzero"/><path fill="#8f27ad" d="M 126.203125 179.125 C 126.203125 179.125 124.632812 177.835938 124.0625 176.835938 C 124.0625 176.835938 111.683594 192.421875 107.277344 196.851562 C 107.277344 196.851562 118.730469 189.449219 126.203125 179.125 " fill-opacity="1" fill-rule="nonzero"/><path fill="#8f27ad" d="M 161.445312 198.710938 C 160.585938 198.570312 159.28125 197.9375 159.28125 197.9375 C 153.976562 205.09375 151.230469 214.613281 151.230469 214.613281 C 153.425781 208.058594 161.445312 198.710938 161.445312 198.710938 " fill-opacity="1" fill-rule="nonzero"/><g fill="#ffffff" fill-opacity="1"><g transform="translate(150.538012, 154.513888)"><g><path d="M 15.953125 -28.613281 C 15.382812 -29.3125 14.339844 -29.863281 13.453125 -29.757812 C 12.558594 -29.6875 12.769531 -29.265625 12.660156 -28.65625 L 11.511719 -22.398438 L 10.894531 -18.75 C 10.761719 -17.949219 10.699219 -15.785156 10.148438 -15.359375 C 9.742188 -15.078125 8.921875 -14.992188 8.449219 -14.839844 L 6.890625 -14.351562 C 5.984375 -14.023438 5.230469 -13.515625 4.300781 -13.289062 C 4.453125 -13.875 4.527344 -14.476562 4.601562 -15.078125 C 4.734375 -15.875 4.570312 -16.5625 4.738281 -17.371094 C 5 -18.710938 5.148438 -20.058594 5.484375 -21.378906 C 5.664062 -22.152344 5.796875 -22.949219 5.941406 -23.714844 C 6.082031 -24.332031 6.003906 -24.96875 6.101562 -25.46875 C 6.242188 -25.9375 6.566406 -26.417969 6.636719 -26.871094 C 6.722656 -27.730469 5.789062 -28.125 5.039062 -28.199219 C 4.472656 -28.28125 3.757812 -28.21875 3.53125 -27.652344 C 3.59375 -27.703125 3.570312 -27.1875 3.554688 -27.257812 C 3.507812 -26.992188 3.429688 -26.71875 3.339844 -26.476562 C 2.542969 -23.292969 2.121094 -20.058594 1.628906 -16.800781 C 1.503906 -15.824219 1.339844 -14.835938 1.21875 -13.824219 C 1.148438 -13.367188 1.082031 -12.878906 0.976562 -12.414062 C 0.832031 -11.796875 0.585938 -11.917969 0.0078125 -11.597656 C -0.253906 -11.460938 -0.777344 -11.226562 -0.839844 -10.882812 C -0.984375 -10.117188 0.164062 -9.886719 0.679688 -9.863281 C 0.519531 -7.054688 0.171875 -4.269531 0.0898438 -1.445312 C 0.0742188 -0.746094 -0.078125 0.128906 0.234375 0.820312 C 0.519531 1.550781 1.957031 2.515625 2.777344 2.136719 C 3.5625 1.765625 3.214844 0.171875 3.253906 -0.566406 C 3.28125 -1.8125 3.378906 -3.078125 3.472656 -4.339844 C 3.535156 -5.449219 3.730469 -6.589844 3.679688 -7.707031 L 3.6875 -8.730469 C 3.746094 -9.253906 3.710938 -10.15625 3.929688 -10.613281 C 4.226562 -11.195312 5.507812 -11.613281 6.179688 -11.847656 C 6.878906 -12.125 7.578125 -12.40625 8.285156 -12.648438 C 8.964844 -12.847656 9.417969 -13.25 10.011719 -13.503906 C 9.617188 -11.367188 9.53125 -9.15625 9.167969 -7.027344 C 8.917969 -5.507812 8.699219 -3.996094 8.566406 -2.433594 C 8.46875 -1.171875 8.285156 0.1875 8.335938 1.449219 C 8.371094 2.207031 8.839844 2.789062 9.59375 3.042969 C 11.335938 3.605469 11.417969 2.128906 11.546875 0.859375 C 11.773438 -1.53125 12.144531 -3.917969 12.445312 -6.289062 C 12.566406 -7.449219 12.542969 -8.460938 12.773438 -9.613281 L 13.246094 -12.644531 C 13.371094 -13.328125 13.492188 -14.636719 14.003906 -15.085938 C 14.34375 -15.351562 14.53125 -15.46875 14.792969 -15.605469 C 15.273438 -15.867188 15.878906 -15.941406 16.394531 -16.210938 C 16.59375 -16.296875 17.222656 -16.558594 17.242188 -16.925781 C 17.238281 -17.253906 17.023438 -17.238281 16.800781 -17.257812 C 16.6875 -17.265625 16.667969 -17.042969 16.667969 -17.042969 C 16.539062 -16.976562 16.382812 -17.011719 16.253906 -16.945312 C 15.582031 -16.707031 14.722656 -16.644531 14.035156 -16.480469 C 14.03125 -17.539062 14.367188 -18.566406 14.617188 -19.648438 L 15.480469 -23.320312 L 15.925781 -25.105469 C 16.023438 -25.601562 15.957031 -26.023438 16.003906 -26.4375 C 16.148438 -27.199219 16.632812 -27.753906 15.953125 -28.613281 Z M 3.542969 -14.164062 C 3.316406 -12.835938 3.125 -11.511719 2.96875 -10.199219 C 3.113281 -11.875 3.238281 -13.472656 3.449219 -15.164062 C 3.660156 -16.855469 4.285156 -18.5 4.613281 -20.148438 Z M 10.996094 -1.269531 C 10.945312 -1.039062 10.882812 -0.839844 10.863281 -0.617188 C 10.839844 -1.011719 10.75 -1.394531 10.796875 -1.804688 C 10.796875 -2.242188 11.09375 -2.679688 11.210938 -3.109375 C 11.179688 -2.480469 11.175781 -1.894531 10.996094 -1.269531 Z M 4.675781 -20.492188 L 4.648438 -20.304688 C 4.632812 -20.371094 4.660156 -20.414062 4.675781 -20.492188 Z M 4.675781 -20.492188 "/></g></g></g><g fill="#ffffff" fill-opacity="1"><g transform="translate(168.72611, 150.121284)"><g><path d="M 11.140625 -11.695312 C 11.148438 -11.664062 11.148438 -11.664062 11.105469 -11.6875 L 11.097656 -11.722656 C 10.320312 -12.519531 9.90625 -11.070312 9.703125 -10.546875 C 9.308594 -9.613281 8.941406 -8.722656 8.496094 -7.851562 C 8.128906 -7.105469 7.726562 -6.351562 7.472656 -5.597656 C 7.488281 -5.527344 7.460938 -5.339844 7.460938 -5.339844 C 7.375 -5.097656 7.207031 -4.875 7.085938 -4.628906 C 6.851562 -4.242188 6.625 -3.824219 6.355469 -3.429688 C 5.953125 -2.824219 3.71875 0.597656 2.914062 -1.070312 C 2.5 -1.878906 2.515625 -3.015625 2.488281 -3.882812 C 2.484375 -4.355469 2.488281 -4.792969 2.449219 -5.257812 C 2.433594 -5.621094 2.25 -5.941406 2.335938 -6.324219 C 2.390625 -6.558594 2.433594 -6.53125 2.65625 -6.660156 L 3.195312 -7.007812 C 3.539062 -7.234375 3.886719 -7.464844 4.179688 -7.753906 C 4.621094 -8.191406 5.011719 -8.6875 5.371094 -9.171875 C 6.222656 -10.328125 7.101562 -11.667969 7.222656 -13.121094 C 7.28125 -13.9375 7.117188 -14.773438 6.476562 -15.3125 C 5.886719 -15.789062 5.054688 -15.914062 4.332031 -15.886719 C 2.386719 -15.78125 1.234375 -14.371094 0.503906 -12.703125 C -0.414062 -10.765625 -0.859375 -8.542969 -0.816406 -6.402344 C -0.816406 -5.34375 -0.714844 -4.3125 -0.636719 -3.238281 C -0.558594 -2.164062 -0.429688 -1.171875 0.355469 -0.339844 C 0.238281 -0.675781 0.09375 -0.972656 0.0195312 -1.28125 C -0.0234375 -1.453125 0.00390625 -1.640625 -0.0273438 -1.78125 C -0.046875 -1.847656 -0.164062 -2.039062 -0.1875 -2.140625 C -0.265625 -2.453125 -0.253906 -2.710938 -0.257812 -3.035156 C -0.300781 -3.355469 -0.410156 -3.65625 -0.449219 -3.976562 C -0.5 -4.328125 -0.425781 -4.636719 -0.363281 -4.980469 C -0.328125 -5.28125 -0.351562 -5.53125 -0.3125 -5.832031 C -0.269531 -6.097656 -0.265625 -6.390625 -0.230469 -6.691406 C -0.238281 -6.871094 -0.113281 -7.121094 -0.0625 -7.351562 C -0.0898438 -7.015625 -0.230469 -6.691406 -0.234375 -6.398438 C -0.234375 -5.960938 -0.0585938 -5.527344 0.0078125 -5.105469 C 0.046875 -4.640625 0.015625 -4.160156 0.0625 -3.660156 C 0.101562 -3.195312 -0.00390625 -2.734375 0.0351562 -2.269531 C 0.0664062 -1.839844 0.00390625 -1.496094 0.136719 -1.089844 C 0.195312 -0.847656 0.289062 -0.617188 0.371094 -0.417969 C 0.472656 -0.152344 0.6875 -0.0195312 0.910156 0.144531 C 1.664062 0.691406 2.585938 1.050781 3.542969 1.078125 C 4.203125 1.101562 4.746094 0.933594 5.257812 0.480469 C 5.976562 -0.167969 6.535156 -1.03125 6.996094 -1.835938 C 7.421875 -2.632812 7.695312 -3.464844 8.046875 -4.277344 C 8.378906 -5.015625 8.824219 -5.742188 9.15625 -6.476562 L 10.433594 -9.339844 L 11.160156 -11.007812 C 11.285156 -11.257812 11.34375 -11.453125 11.140625 -11.695312 Z M 2.6875 -9.253906 C 2.707031 -9.332031 2.695312 -9.367188 2.695312 -9.367188 C 2.949219 -10.59375 3.042969 -11.855469 3.507812 -13.097656 L 3.929688 -14.074219 C 4.027344 -14.28125 4.191406 -14.648438 4.417969 -14.777344 C 4.910156 -15.003906 5.261719 -14.144531 5.3125 -13.789062 L 5.347656 -13.03125 C 5.363281 -12.816406 5.464844 -12.695312 5.472656 -12.515625 C 5.453125 -12.292969 5.308594 -12.148438 5.246094 -11.949219 L 4.84375 -11.050781 C 4.273438 -9.929688 3.46875 -8.894531 2.507812 -8.042969 C 2.585938 -8.464844 2.597656 -8.867188 2.6875 -9.253906 Z M 2.6875 -9.253906 "/></g></g></g><g fill="#ffffff" fill-opacity="1"><g transform="translate(179.439179, 147.533973)"><g><path d="M 11.660156 -12.113281 C 11.300781 -11.480469 11.199219 -10.542969 10.972656 -9.832031 C 10.625 -8.691406 10.273438 -7.585938 9.886719 -6.472656 C 9.164062 -4.328125 8.449219 -2.148438 7.445312 -0.121094 C 7.035156 0.742188 6.21875 2.800781 5.015625 2.945312 C 4.121094 3.015625 3.761719 1.535156 3.605469 0.878906 C 3.46875 0.328125 3.371094 -0.230469 3.316406 -0.765625 C 3.277344 -1.082031 3.300781 -2.183594 3.0625 -2.417969 L 3.035156 -1.316406 C 2.972656 -1.738281 2.933594 -2.203125 2.933594 -2.640625 C 2.882812 -2.703125 2.960938 -3.742188 2.957031 -4.070312 C 2.960938 -4.800781 2.96875 -5.53125 3.007812 -6.269531 C 3.011719 -7 3.027344 -7.695312 3.078125 -8.398438 C 3.097656 -9.0625 3.265625 -9.429688 3.527344 -10.003906 C 4.613281 -12.308594 5.515625 -14.75 6.320312 -17.167969 C 6.609375 -18.078125 6.753906 -18.84375 7.179688 -19.636719 C 7.824219 -20.742188 8.085938 -22.226562 8.371094 -23.460938 C 8.871094 -25.480469 9.511719 -28.257812 8.796875 -30.3125 L 8.753906 -30.484375 L 8.710938 -30.507812 C 8.179688 -31.804688 6.558594 -33.089844 5.160156 -32.242188 C 4.425781 -31.808594 4.039062 -30.839844 3.699219 -30.136719 L 3.164062 -28.878906 C 3.039062 -28.628906 2.925781 -28.054688 2.820312 -27.738281 L 2.84375 -27.78125 L 2.199219 -25.617188 L 2.332031 -26.269531 C 2.152344 -26.261719 1.753906 -24.597656 1.691406 -24.402344 C 1.46875 -23.65625 1.285156 -22.917969 1.132812 -22.1875 C 0.777344 -20.644531 0.429688 -19.066406 0.335938 -17.476562 C 0.214844 -15.875 0.0117188 -14.296875 -0.148438 -12.691406 C -0.230469 -11.832031 -0.308594 -10.9375 -0.359375 -10.085938 C -0.40625 -9.382812 -0.628906 -8.199219 -0.359375 -7.535156 L -0.257812 -7.558594 C -0.300781 -7.292969 -0.3125 -7.035156 -0.324219 -6.777344 C -0.339844 -6.992188 -0.398438 -7.234375 -0.378906 -7.308594 C -0.492188 -7.027344 -0.261719 -6.210938 -0.277344 -6.132812 C -0.277344 -4.164062 -0.34375 -2.179688 -0.015625 -0.214844 C 0.320312 1.636719 0.90625 4.046875 2.675781 5.042969 C 4.652344 6.132812 6.273438 4.683594 7.308594 3.085938 C 8.519531 1.152344 9.421875 -1 10.230469 -3.089844 C 10.96875 -5.019531 11.4375 -6.992188 12.074219 -8.894531 C 12.320312 -9.683594 12.601562 -10.480469 12.625 -11.289062 C 12.628906 -11.875 12.253906 -13.132812 11.660156 -12.113281 Z M 4.375 -23.410156 C 4.664062 -25.230469 4.945312 -27.082031 5.535156 -28.867188 C 5.683594 -29.304688 6.734375 -31.746094 7.109375 -29.902344 L 7.117188 -29.867188 C 7.515625 -27.921875 6.765625 -25.589844 6.335938 -23.738281 L 5.539062 -20.699219 C 5.257812 -19.757812 4.679688 -18.523438 4.621094 -17.5625 C 4.691406 -18.164062 5.121094 -19.105469 5.308594 -19.695312 C 5.617188 -20.683594 5.855469 -21.652344 6.128906 -22.628906 C 6.554688 -24.335938 7.035156 -26.128906 7.222656 -27.925781 C 6.785156 -22.933594 4.933594 -17.929688 3.371094 -13.210938 C 3.640625 -16.484375 3.839844 -20.035156 4.375 -23.410156 Z M 2.6875 -25.554688 C 2.875 -26.292969 3.363281 -26.992188 3.558594 -27.695312 C 3.183594 -26.074219 2.605469 -24.550781 2.179688 -22.988281 C 2.171875 -23.023438 2.152344 -23.089844 2.179688 -23.132812 C 2.308594 -23.96875 2.484375 -24.738281 2.6875 -25.554688 Z M 0.480469 -6.167969 C 0.460938 -6.089844 0.46875 -6.058594 0.46875 -6.058594 C 0.289062 -4.992188 0.570312 -3.675781 0.613281 -2.589844 C 0.636719 -2.34375 0.617188 -2.117188 0.675781 -1.878906 L 0.652344 -1.980469 L 0.816406 -0.851562 C 0.585938 -2.109375 0.414062 -3.417969 0.363281 -4.683594 L 0.371094 -4.648438 C 0.285156 -5.464844 0.28125 -6.230469 0.417969 -6.265625 C 0.480469 -6.316406 0.503906 -6.210938 0.480469 -6.167969 Z M 0.480469 -6.167969 "/></g></g></g><g fill="#ffffff" fill-opacity="1"><g transform="translate(191.633477, 144.58893)"><g><path d="M 17.4375 -13.253906 C 17.238281 -13.171875 15.582031 -12.1875 15.75 -11.933594 C 15.757812 -11.902344 15.835938 -11.882812 15.871094 -11.890625 C 15.34375 -11.507812 14.59375 -11.292969 14.097656 -10.769531 C 13.554688 -10.164062 13.039062 -9.566406 12.441406 -9.023438 C 12.804688 -10.238281 13.117188 -11.519531 13.222656 -12.746094 C 13.257812 -13.191406 13.4375 -15.933594 12.851562 -16.085938 C 12.773438 -16.101562 12.816406 -15.785156 12.824219 -15.605469 C 12.523438 -16.992188 11.570312 -18.984375 9.675781 -18.671875 C 8.519531 -18.46875 7.792969 -16.796875 7.355469 -15.886719 C 6.378906 -13.753906 5.601562 -11.527344 4.8125 -9.367188 C 4.59375 -8.765625 2.496094 -2.351562 2.496094 -2.351562 C 2.496094 -2.351562 2.652344 -2.753906 2.855469 -3.277344 C 2.667969 -2.6875 2.492188 -2.058594 2.351562 -1.441406 C 2.363281 -1.992188 2.683594 -6.410156 2.925781 -9.019531 C 2.96875 -9.140625 2.972656 -9.285156 2.980469 -9.398438 L 3.046875 -10.035156 L 3.054688 -10 C 3.140625 -11.003906 3.226562 -12.011719 3.269531 -13.042969 C 3.292969 -12.9375 3.28125 -12.386719 3.316406 -12.394531 C 3.53125 -12.410156 3.457031 -13.925781 3.316406 -13.890625 L 3.257812 -13.695312 C 3.234375 -14.238281 3.347656 -14.519531 2.898438 -15.03125 C 2.53125 -15.488281 2 -15.871094 1.382812 -15.867188 C 0.171875 -15.902344 -0.15625 -14.839844 0.128906 -13.960938 C 0.164062 -13.824219 0.351562 -13.796875 0.382812 -13.65625 C 0.425781 -13.484375 0.328125 -13.132812 0.328125 -12.988281 C 0.261719 -12.207031 0.253906 -11.476562 0.144531 -10.71875 C 0.101562 -10.308594 -0.308594 -6.414062 -0.308594 -6.414062 C -0.25 -6.46875 -0.230469 -6.542969 -0.214844 -6.621094 C -0.242188 -6.285156 -0.269531 -5.953125 -0.332031 -5.609375 C -0.375 -5.632812 -0.296875 -5.910156 -0.367188 -5.890625 C -0.726562 -5.878906 -0.890625 -2.773438 -0.890625 -2.484375 C -0.871094 -1.796875 -0.894531 -1.132812 -0.976562 -0.421875 C -0.996094 -0.0507812 -1.050781 0.328125 -1.0625 0.730469 C -1.054688 0.765625 -1.027344 1.632812 -0.929688 1.28125 C -0.941406 1.394531 -0.957031 1.472656 -0.941406 1.539062 C -0.949219 1.503906 -0.992188 1.480469 -1 1.445312 C -1.09375 1.503906 -0.988281 2.246094 -0.980469 2.277344 C -1.027344 2.691406 -1.132812 3.007812 -1.222656 3.394531 C -1.402344 4.605469 -1.355469 5.871094 -1.242188 7.082031 C -1.085938 8.941406 -1.265625 11.828125 0.03125 13.265625 C 0.484375 13.777344 1.738281 14.75 2.320312 13.84375 C 2.582031 13.414062 2.390625 12.621094 2.328125 12.199219 C 2.257812 11.011719 2.148438 9.800781 2.113281 8.605469 L 2.042969 6.945312 C 2.058594 6.867188 2.027344 5.527344 1.933594 5.585938 C 1.878906 5.671875 1.835938 5.792969 1.828125 5.902344 C 1.867188 5.3125 1.980469 4.734375 2.046875 4.101562 C 2.125 3.207031 2.140625 2.363281 2.371094 1.507812 C 2.667969 0.632812 2.882812 -0.296875 3.148438 -1.160156 C 3.34375 -1.863281 3.460938 -2.730469 3.714844 -3.339844 C 3.785156 -3.503906 3.976562 -3.621094 4.113281 -3.800781 C 4.367188 -4.261719 4.484375 -4.839844 4.660156 -5.320312 C 4.976562 -6.269531 5.222656 -7.207031 5.59375 -8.097656 C 5.75 -8.5 7.574219 -13.023438 7.792969 -13.332031 C 7.730469 -13.28125 7.671875 -13.230469 7.617188 -13.144531 C 7.8125 -13.554688 8.046875 -13.941406 8.253906 -14.28125 C 8.296875 -14.257812 8.105469 -13.992188 8.148438 -13.964844 C 8.226562 -13.945312 9.511719 -15.570312 9.78125 -15.671875 C 10.503906 -15.992188 10.578125 -14.480469 10.566406 -14.074219 C 10.585938 -13.242188 10.320312 -12.375 10.109375 -11.59375 C 9.992188 -11.164062 9.871094 -10.769531 9.789062 -10.351562 C 9.761719 -10.308594 9.644531 -9.585938 9.730469 -9.679688 L 9.601562 -9.320312 C 9.644531 -9.441406 9.644531 -9.585938 9.644531 -9.585938 C 9.507812 -9.550781 9.476562 -8.925781 9.46875 -8.8125 C 9.34375 -8.417969 9.132812 -8.078125 8.925781 -7.734375 C 8.402344 -6.734375 7.953125 -5.714844 7.421875 -4.746094 C 7.011719 -4.027344 6.539062 -2.820312 5.761719 -2.414062 C 5.210938 -2.132812 4.6875 -2.335938 5.222656 -1.480469 C 5.585938 -0.875 6.710938 0.457031 7.539062 0.257812 C 8.296875 0.0742188 8.949219 -1.285156 9.28125 -1.878906 C 9.65625 -2.585938 10.109375 -3.28125 10.511719 -4.035156 C 10.601562 -4.273438 11.726562 -6.550781 11.941406 -6.714844 L 11.910156 -6.703125 C 12.210938 -6.960938 12.589844 -6.90625 12.988281 -7.367188 C 13.214844 -7.640625 13.300781 -7.878906 13.5625 -8.160156 C 13.769531 -8.359375 13.832031 -8.554688 13.910156 -8.683594 C 13.910156 -8.683594 13.917969 -8.648438 13.953125 -8.65625 C 14.214844 -9.085938 14.722656 -9.097656 15.09375 -9.515625 C 15.554688 -10.027344 16.128906 -10.675781 16.5 -11.242188 C 16.988281 -11.941406 17.773438 -12.460938 17.824219 -13.457031 C 17.695312 -13.390625 17.523438 -13.347656 17.4375 -13.253906 Z M 0.644531 -5.480469 L 0.652344 -5.445312 C 0.726562 -4.988281 0.542969 -4.398438 0.46875 -3.941406 C 0.386719 -3.230469 0.339844 -2.523438 0.289062 -1.820312 C 0.175781 -0.332031 -0.0078125 1.167969 -0.246094 2.613281 C -0.425781 3.820312 -0.546875 5.128906 -0.566406 6.410156 C -0.597656 4.628906 -0.375 2.824219 -0.277344 1.125 C -0.175781 -0.429688 0.171875 -2.011719 0.382812 -3.554688 C 0.410156 -3.746094 0.730469 -5.28125 0.59375 -5.539062 C 0.636719 -5.515625 0.644531 -5.480469 0.644531 -5.480469 Z M 2.410156 -4.8125 C 2.40625 -4.375 2.394531 -3.96875 2.339844 -3.59375 C 2.363281 -3.960938 2.363281 -4.398438 2.410156 -4.8125 Z M 5.765625 -11.601562 L 5.34375 -10.480469 C 5.476562 -10.839844 5.601562 -11.234375 5.765625 -11.601562 Z M 12.390625 -8.789062 C 12.398438 -8.902344 12.5625 -8.976562 12.648438 -9.070312 Z M 3.179688 -10.832031 C 3.15625 -10.789062 3.144531 -10.679688 3.144531 -10.53125 Z M 3.082031 -10.1875 L 3.144531 -10.53125 Z M 5.082031 -9.761719 L 5.074219 -9.792969 C 5.097656 -9.835938 5.097656 -9.835938 5.089844 -9.871094 C 5.117188 -9.914062 5.097656 -9.835938 5.082031 -9.761719 Z M 3.082031 -10.1875 C 3.097656 -10.121094 3.074219 -10.078125 3.046875 -10.035156 Z M -0.5625 6.734375 C -0.570312 6.699219 -0.570312 6.699219 -0.542969 6.660156 C -0.535156 6.691406 -0.535156 6.691406 -0.5625 6.734375 Z M 2.519531 -5.277344 C 2.527344 -5.242188 2.492188 -5.234375 2.492188 -5.234375 Z M 2.519531 -5.277344 "/></g></g></g><g fill="#ffffff" fill-opacity="1"><g transform="translate(208.994843, 140.39599)"><g><path d="M 11.140625 -11.695312 C 11.148438 -11.664062 11.148438 -11.664062 11.105469 -11.6875 L 11.097656 -11.722656 C 10.320312 -12.519531 9.90625 -11.070312 9.703125 -10.546875 C 9.308594 -9.613281 8.941406 -8.722656 8.496094 -7.851562 C 8.128906 -7.105469 7.726562 -6.351562 7.472656 -5.597656 C 7.488281 -5.527344 7.460938 -5.339844 7.460938 -5.339844 C 7.375 -5.097656 7.207031 -4.875 7.085938 -4.628906 C 6.851562 -4.242188 6.625 -3.824219 6.355469 -3.429688 C 5.953125 -2.824219 3.71875 0.597656 2.914062 -1.070312 C 2.5 -1.878906 2.515625 -3.015625 2.488281 -3.882812 C 2.484375 -4.355469 2.488281 -4.792969 2.449219 -5.257812 C 2.433594 -5.621094 2.25 -5.941406 2.335938 -6.324219 C 2.390625 -6.558594 2.433594 -6.53125 2.65625 -6.660156 L 3.195312 -7.007812 C 3.539062 -7.234375 3.886719 -7.464844 4.179688 -7.753906 C 4.621094 -8.191406 5.011719 -8.6875 5.371094 -9.171875 C 6.222656 -10.328125 7.101562 -11.667969 7.222656 -13.121094 C 7.28125 -13.9375 7.117188 -14.773438 6.476562 -15.3125 C 5.886719 -15.789062 5.054688 -15.914062 4.332031 -15.886719 C 2.386719 -15.78125 1.234375 -14.371094 0.503906 -12.703125 C -0.414062 -10.765625 -0.859375 -8.542969 -0.816406 -6.402344 C -0.816406 -5.34375 -0.714844 -4.3125 -0.636719 -3.238281 C -0.558594 -2.164062 -0.429688 -1.171875 0.355469 -0.339844 C 0.238281 -0.675781 0.09375 -0.972656 0.0195312 -1.28125 C -0.0234375 -1.453125 0.00390625 -1.640625 -0.0273438 -1.78125 C -0.046875 -1.847656 -0.164062 -2.039062 -0.1875 -2.140625 C -0.265625 -2.453125 -0.253906 -2.710938 -0.257812 -3.035156 C -0.300781 -3.355469 -0.410156 -3.65625 -0.449219 -3.976562 C -0.5 -4.328125 -0.425781 -4.636719 -0.363281 -4.980469 C -0.328125 -5.28125 -0.351562 -5.53125 -0.3125 -5.832031 C -0.269531 -6.097656 -0.265625 -6.390625 -0.230469 -6.691406 C -0.238281 -6.871094 -0.113281 -7.121094 -0.0625 -7.351562 C -0.0898438 -7.015625 -0.230469 -6.691406 -0.234375 -6.398438 C -0.234375 -5.960938 -0.0585938 -5.527344 0.0078125 -5.105469 C 0.046875 -4.640625 0.015625 -4.160156 0.0625 -3.660156 C 0.101562 -3.195312 -0.00390625 -2.734375 0.0351562 -2.269531 C 0.0664062 -1.839844 0.00390625 -1.496094 0.136719 -1.089844 C 0.195312 -0.847656 0.289062 -0.617188 0.371094 -0.417969 C 0.472656 -0.152344 0.6875 -0.0195312 0.910156 0.144531 C 1.664062 0.691406 2.585938 1.050781 3.542969 1.078125 C 4.203125 1.101562 4.746094 0.933594 5.257812 0.480469 C 5.976562 -0.167969 6.535156 -1.03125 6.996094 -1.835938 C 7.421875 -2.632812 7.695312 -3.464844 8.046875 -4.277344 C 8.378906 -5.015625 8.824219 -5.742188 9.15625 -6.476562 L 10.433594 -9.339844 L 11.160156 -11.007812 C 11.285156 -11.257812 11.34375 -11.453125 11.140625 -11.695312 Z M 2.6875 -9.253906 C 2.707031 -9.332031 2.695312 -9.367188 2.695312 -9.367188 C 2.949219 -10.59375 3.042969 -11.855469 3.507812 -13.097656 L 3.929688 -14.074219 C 4.027344 -14.28125 4.191406 -14.648438 4.417969 -14.777344 C 4.910156 -15.003906 5.261719 -14.144531 5.3125 -13.789062 L 5.347656 -13.03125 C 5.363281 -12.816406 5.464844 -12.695312 5.472656 -12.515625 C 5.453125 -12.292969 5.308594 -12.148438 5.246094 -11.949219 L 4.84375 -11.050781 C 4.273438 -9.929688 3.46875 -8.894531 2.507812 -8.042969 C 2.585938 -8.464844 2.597656 -8.867188 2.6875 -9.253906 Z M 2.6875 -9.253906 "/></g></g></g><g fill="#ffffff" fill-opacity="1"><g transform="translate(219.707912, 137.808678)"><g><path d="M 12.105469 -11.785156 C 11.679688 -12.628906 11.144531 -11.222656 11.023438 -10.976562 L 9.742188 -7.96875 L 8.472656 -5.074219 L 7.78125 -3.558594 C 7.710938 -3.394531 7.1875 -2.246094 7.257812 -2.261719 C 7.308594 -2.347656 7.414062 -2.375 7.492188 -2.5 C 7.105469 -1.824219 5.628906 0.355469 5.183594 0.0234375 C 4.824219 -0.253906 5.234375 -1.882812 5.253906 -2.253906 C 5.390625 -3.34375 5.484375 -4.460938 5.667969 -5.527344 C 5.875 -6.632812 6.148438 -7.757812 6.320312 -8.855469 C 6.476562 -10.023438 5.765625 -10.253906 4.707031 -10.253906 C 4.234375 -10.25 3.683594 -10.113281 3.148438 -10.058594 C 3.15625 -10.023438 3.191406 -10.03125 3.191406 -10.03125 C 3.65625 -10.070312 4.320312 -10.195312 4.914062 -10.15625 C 4.027344 -10.199219 3.019531 -9.84375 2.324219 -9.859375 C 1.851562 -9.855469 1.574219 -9.789062 1.519531 -10.320312 C 1.421875 -11.027344 1.96875 -11.925781 2.050781 -12.636719 C 2.0625 -12.605469 1.96875 -11.925781 2.003906 -11.933594 C 2.191406 -11.90625 2.234375 -12.9375 2.203125 -13.074219 C 2.125 -13.238281 1.589844 -13.65625 1.601562 -13.441406 L 1.699219 -13.355469 C -0.230469 -14.09375 -1.628906 -11.273438 -0.875 -9.671875 C -0.75 -9.445312 -0.578125 -9.339844 -0.410156 -9.089844 C -0.289062 -8.898438 -0.300781 -8.640625 -0.0273438 -8.417969 C 0.914062 -7.695312 2.230469 -7.976562 3.214844 -8.433594 C 3.101562 -8.152344 2.207031 -3.851562 2.316406 -3.839844 L 2.285156 -2.921875 C 2.242188 -2.949219 2.3125 -3.257812 2.242188 -3.242188 C 1.996094 -3.214844 1.996094 -1.101562 2 -0.921875 C 2.0625 -0.0625 2.273438 0.65625 2.800781 1.328125 C 3.125 1.761719 3.464844 2.117188 3.980469 2.285156 C 4.460938 2.460938 5.007812 2.472656 5.46875 2.253906 C 5.621094 2.144531 6.167969 1.535156 6.003906 1.613281 L 6.222656 1.449219 C 6.195312 1.492188 6.167969 1.535156 6.175781 1.570312 C 6.289062 1.582031 7.566406 -0.078125 7.738281 -0.265625 C 8.617188 -1.460938 9.238281 -2.816406 9.789062 -4.152344 C 10.335938 -5.523438 10.914062 -6.902344 11.421875 -8.265625 C 11.667969 -8.90625 11.878906 -9.542969 12.015625 -10.195312 C 12.121094 -10.65625 12.324219 -11.328125 12.105469 -11.785156 Z M 2.800781 -5.160156 C 2.890625 -5.839844 3.027344 -6.492188 3.195312 -7.152344 C 3.238281 -7.273438 3.421875 -8.628906 3.644531 -8.757812 C 3.5 -8.613281 3.183594 -6.75 3.085938 -6.398438 L 2.796875 -4.722656 C 2.652344 -3.8125 2.480469 -2.859375 2.457031 -1.90625 C 2.449219 -2.996094 2.621094 -4.097656 2.800781 -5.160156 Z M 3.570312 1.652344 C 3.84375 1.878906 4.1875 2.089844 4.597656 2.132812 C 4.265625 2.105469 3.945312 2 3.691406 1.84375 C 3.726562 1.835938 3.734375 1.871094 3.742188 1.902344 C 3.46875 1.679688 3.050781 1.160156 2.992188 1.0625 C 2.789062 0.675781 2.636719 0.203125 2.570312 -0.21875 C 2.488281 -0.566406 2.457031 -0.847656 2.449219 -1.175781 L 2.460938 -1.140625 C 2.5 -0.675781 2.570312 -0.21875 2.722656 0.253906 L 2.765625 0.425781 C 2.722656 0.398438 2.714844 0.367188 2.714844 0.367188 C 2.714844 0.367188 2.722656 0.398438 2.773438 0.460938 L 2.78125 0.496094 L 3.09375 1.183594 L 2.882812 0.761719 C 3 0.953125 3.265625 1.289062 3.527344 1.628906 L 3.484375 1.601562 C 3.496094 1.636719 3.539062 1.660156 3.578125 1.6875 Z M 1.789062 -9.949219 C 1.996094 -9.851562 2.3125 -9.894531 2.632812 -9.933594 C 2.347656 -9.902344 2.089844 -9.914062 1.886719 -10.007812 C 1.886719 -10.007812 1.636719 -10.132812 1.585938 -10.191406 C 1.601562 -10.121094 1.714844 -9.96875 1.789062 -9.949219 Z M 6.058594 -8.136719 L 5.699219 -6.445312 L 6.050781 -8.171875 Z M 2.460938 -1.285156 C 2.46875 -1.253906 2.441406 -1.210938 2.449219 -1.175781 L 2.441406 -1.210938 C 2.433594 -1.246094 2.46875 -1.253906 2.460938 -1.285156 Z M 6.066406 -8.246094 L 6.074219 -8.214844 L 6.039062 -8.203125 Z M 6.066406 -8.246094 L 6.074219 -8.214844 L 6.039062 -8.203125 Z M 2.386719 -1.742188 C 2.378906 -1.777344 2.40625 -1.820312 2.386719 -1.890625 C 2.40625 -1.820312 2.378906 -1.777344 2.386719 -1.742188 Z M 3.289062 1.394531 C 3.289062 1.394531 3.332031 1.417969 3.339844 1.453125 C 3.332031 1.417969 3.296875 1.425781 3.289062 1.394531 Z M 1.605469 -10.269531 C 1.570312 -10.261719 1.578125 -10.226562 1.578125 -10.226562 Z M 1.605469 -10.269531 "/></g></g></g><g fill="#ffffff" fill-opacity="1"><g transform="translate(231.316607, 135.005064)"><g><path d="M 11.722656 -11.398438 C 11.503906 -11.859375 11.210938 -11.859375 10.898438 -11.640625 C 10.320312 -11.171875 9.832031 -10.324219 9.3125 -9.761719 C 8.113281 -8.523438 6.878906 -7.457031 5.542969 -6.335938 C 5.535156 -6.367188 5.484375 -6.429688 5.425781 -6.523438 C 5.5 -6.359375 5.484375 -6.285156 5.457031 -6.242188 C 4.753906 -7.640625 4.054688 -9.039062 3.410156 -10.488281 C 3.707031 -9.867188 4.285156 -8.835938 4.75 -7.964844 C 4.089844 -9.339844 3.277344 -11.039062 3.3125 -11.046875 C 3.25 -10.996094 3.269531 -10.925781 3.285156 -10.859375 C 3.117188 -11.253906 2.886719 -11.746094 2.847656 -12.210938 C 2.757812 -12.734375 2.925781 -13.25 2.980469 -13.773438 C 3.003906 -13.523438 3.011719 -13.199219 3.011719 -13.199219 C 3.226562 -13.214844 3.054688 -14.523438 3.023438 -14.660156 C 2.9375 -14.859375 2.332031 -15.402344 2.375 -15.230469 C 1.234375 -15.867188 -0.132812 -13.53125 -0.207031 -12.640625 C -0.28125 -12.039062 -0.140625 -11.453125 0.0351562 -10.875 C 0.210938 -10.296875 0.507812 -9.820312 0.8125 -9.3125 C 1.015625 -8.925781 0.945312 -8.613281 1.089844 -8.175781 C 1.324219 -7.503906 1.730469 -6.871094 2.027344 -6.25 C 2.289062 -5.765625 2.988281 -4.84375 3 -4.335938 C 3.046875 -3.835938 2.113281 -3.171875 1.734375 -2.789062 C 1.238281 -2.269531 0.761719 -1.679688 0.285156 -1.089844 C -0.558594 -0.046875 -1.417969 1.21875 -1.523438 2.59375 C -1.550781 2.78125 -1.609375 3.597656 -1.335938 3.675781 C -1.292969 3.703125 -1.332031 3.09375 -1.3125 3.015625 C -1.210938 5.398438 1.292969 5.960938 3.402344 5.484375 C 5.796875 4.980469 7.117188 3.203125 7.429688 0.867188 C 7.550781 -0.144531 7.417969 -1.136719 7.152344 -2.09375 C 6.992188 -2.746094 6.777344 -3.351562 6.523438 -3.945312 C 6.320312 -4.480469 6.257812 -4.429688 6.5625 -4.832031 C 6.789062 -5.105469 7.167969 -5.339844 7.410156 -5.546875 C 8.375 -6.398438 9.207031 -7.328125 10.03125 -8.292969 C 10.628906 -8.984375 12.136719 -10.296875 11.730469 -11.367188 Z M 0.664062 3.8125 C -0.296875 3.753906 0.257812 2.125 0.460938 1.601562 C 0.808594 0.789062 1.445312 0.0898438 2.015625 -0.558594 L 2.882812 -1.5 C 2.96875 -1.59375 3.5 -2.265625 3.308594 -2.148438 L 3.664062 -2.488281 L 3.472656 -2.222656 C 3.535156 -2.277344 3.628906 -2.335938 3.683594 -2.421875 C 3.914062 -1.601562 4.117188 -0.773438 4.074219 0.109375 C 4.074219 0.257812 3.75 1.792969 3.542969 2.132812 L 3.679688 1.957031 C 3.460938 2.410156 3.191406 2.800781 2.835938 3.144531 C 2.828125 3.109375 3.089844 2.828125 3.046875 2.800781 L 2.171875 3.414062 C 1.714844 3.632812 1.191406 3.871094 0.664062 3.8125 Z M 5.25 3.765625 C 4.445312 4.359375 3.625 4.738281 2.703125 5 C 4.367188 4.488281 5.921875 3.238281 6.582031 1.582031 C 6.386719 2.433594 6.042969 3.132812 5.25 3.765625 Z M 5.398438 -6.628906 C 5.308594 -6.859375 5.15625 -7.1875 4.960938 -7.542969 C 5.121094 -7.179688 5.28125 -6.816406 5.398438 -6.628906 Z M 6.714844 -3.152344 C 6.671875 -3.179688 6.652344 -3.246094 6.636719 -3.316406 C 6.652344 -3.246094 6.707031 -3.1875 6.714844 -3.152344 Z M 6.714844 -3.152344 "/></g></g></g><g fill="#ffffff" fill-opacity="1"><g transform="translate(242.477483, 132.309603)"><g><path d="M 1 -21.828125 L 0.992188 -21.863281 C 0.660156 -22.476562 -0.210938 -22.15625 -0.648438 -22.011719 C -0.882812 -21.921875 -1.203125 -21.734375 -1.289062 -21.492188 C -1.429688 -21.167969 -1.25 -21.175781 -1.214844 -21.039062 C -1.210938 -20.566406 -1.59375 -16.570312 -0.714844 -16.855469 C -0.824219 -16.246094 -0.761719 -15.679688 -0.84375 -15.113281 C -0.84375 -14.820312 -1.179688 -13.644531 -0.839844 -13.433594 C -0.324219 -13.121094 -0.101562 -14.304688 0.0117188 -14.589844 C 0.390625 -15.738281 0.648438 -16.785156 0.726562 -17.96875 C 0.769531 -18.5625 1.023438 -19.171875 1.0625 -19.765625 C 1.074219 -20.316406 1.238281 -21.300781 1 -21.828125 Z M 1 -21.828125 "/></g></g></g><g fill="#ffffff" fill-opacity="1"><g transform="translate(157.955281, 203.645679)"><g><path d="M 12.089844 -30.414062 C 11.097656 -29.847656 10.34375 -28.277344 9.769531 -27.335938 C 9.394531 -26.773438 9.03125 -26.175781 8.707031 -25.550781 C 8.480469 -25.128906 7.855469 -24.25 7.902344 -23.75 C 7.945312 -23.722656 7.945312 -23.722656 7.980469 -23.734375 L 7.644531 -22.996094 C 7.621094 -22.953125 7.867188 -23.597656 7.867188 -23.597656 C 7.703125 -23.519531 7.550781 -22.789062 7.550781 -22.789062 C 6.886719 -21.316406 6.089844 -19.921875 5.511719 -18.394531 C 4.871094 -16.671875 4.410156 -14.957031 4 -13.179688 C 4.046875 -14.945312 4.242188 -16.703125 4.515625 -18.449219 C 4.585938 -18.902344 5.402344 -23.839844 5.476562 -23.820312 C 5.367188 -23.832031 4.59375 -19.632812 4.539062 -19.402344 C 4.867188 -21.523438 5.269531 -23.625 5.828125 -25.691406 C 5.792969 -25.539062 5.765625 -25.347656 5.800781 -25.359375 C 5.945312 -25.355469 6.308594 -26.867188 6.199219 -26.875 L 6.113281 -26.78125 C 6.226562 -27.210938 6.28125 -27.441406 5.941406 -27.945312 C 5.601562 -28.445312 4.851562 -29.285156 4.203125 -28.800781 C 3.796875 -28.519531 3.617188 -27.601562 3.527344 -27.214844 C 3.464844 -27.019531 3.5 -26.734375 3.429688 -26.570312 C 3.339844 -26.332031 3.125 -26.167969 2.984375 -25.84375 C 2.703125 -25.046875 2.59375 -24.144531 2.464844 -23.3125 C 2.390625 -22.855469 1.488281 -18.300781 1.566406 -18.28125 C 1.625 -18.332031 1.644531 -18.410156 1.660156 -18.488281 C 1.632812 -18.152344 1.570312 -17.808594 1.507812 -17.464844 C 1.464844 -17.492188 1.542969 -17.765625 1.507812 -17.757812 C 1.148438 -17.742188 0.804688 -14.632812 0.800781 -14.34375 C 0.824219 -13.652344 0.792969 -13.027344 0.675781 -12.304688 C 0.601562 -11.851562 0.53125 -11.394531 0.492188 -10.949219 C 0.5 -10.914062 0.535156 -10.011719 0.597656 -10.355469 C 0.625 -10.25 0.605469 -10.175781 0.597656 -10.0625 C 0.589844 -10.097656 0.570312 -10.164062 0.527344 -10.191406 C 0.46875 -10.140625 0.519531 -9.167969 0.496094 -9.125 C 0.441406 -8.75 0.308594 -8.386719 0.253906 -8.011719 C 0.0390625 -6.9375 0.0195312 -5.804688 0.0273438 -4.710938 L 0.15625 -1.023438 C 0.175781 -0.332031 -0.0195312 1.28125 0.65625 1.8125 C 0.640625 1.742188 0.632812 1.707031 0.65625 1.664062 C 0.664062 1.699219 0.683594 1.769531 0.734375 1.828125 C 1.316406 2.890625 3.09375 2.097656 3.558594 1.292969 C 3.574219 1.359375 3.617188 1.386719 3.660156 1.414062 C 3.433594 -0.574219 3.648438 -2.703125 3.898438 -4.695312 C 3.980469 -5.554688 3.941406 -6.933594 4.34375 -7.683594 C 4.292969 -8.039062 4.441406 -8.183594 4.757812 -8.078125 C 4.972656 -8.09375 5.222656 -8.117188 5.429688 -8.167969 C 5.644531 -8.183594 5.921875 -8.25 6.152344 -8.339844 C 7.542969 -8.933594 8.859375 -10.269531 9.917969 -11.328125 C 10.332031 -11.722656 10.578125 -12.21875 10.96875 -12.566406 C 11.382812 -12.960938 11.832031 -13.214844 12.222656 -13.707031 C 13.289062 -15.023438 14.085938 -16.417969 14.808594 -17.945312 C 15.542969 -19.433594 16.132812 -20.925781 16.386719 -22.589844 C 16.546875 -23.433594 16.625 -24.324219 16.664062 -25.210938 C 16.660156 -25.539062 16.792969 -26.042969 16.648438 -26.335938 C 16.648438 -26.335938 16.601562 -26.070312 16.574219 -25.882812 C 16.539062 -26.492188 16.472656 -27.058594 16.289062 -27.671875 C 16.355469 -27.542969 16.476562 -27.351562 16.449219 -27.308594 C 16.511719 -27.359375 16.367188 -27.800781 16.316406 -28.007812 C 16.335938 -27.9375 16.226562 -28.238281 16.285156 -28.144531 C 15.746094 -29.765625 13.757812 -31.363281 12.089844 -30.414062 Z M 13.070312 -26.203125 C 13.070312 -26.054688 13.0625 -26.089844 13.078125 -26.167969 C 13.480469 -23.75 12.703125 -21.082031 11.816406 -18.863281 C 11.371094 -17.695312 10.800781 -16.574219 10.191406 -15.480469 C 9.902344 -15.007812 9.582031 -14.53125 9.25 -14.085938 C 9.015625 -13.699219 8.445312 -13.199219 8.226562 -12.742188 C 8.433594 -13.085938 8.972656 -13.582031 9.199219 -13.851562 C 9.632812 -14.46875 10.050781 -15.152344 10.441406 -15.796875 C 11.054688 -16.890625 11.621094 -18.011719 12.070312 -19.175781 C 10.722656 -15.535156 8.488281 -12.113281 5.355469 -9.828125 C 5.589844 -10.066406 6.195312 -10.578125 6.1875 -10.609375 C 6.101562 -10.664062 4.875 -9.710938 4.753906 -9.609375 C 4.984375 -10.613281 5.214844 -11.617188 5.484375 -12.628906 C 5.570312 -12.867188 6.164062 -15.234375 6.164062 -15.234375 C 6.097656 -15.21875 6.035156 -15.167969 6.027344 -15.054688 C 6.953125 -17.867188 8.359375 -20.796875 9.679688 -23.488281 C 10.097656 -24.316406 12.4375 -29.585938 13.0625 -26.238281 Z M 0.421875 -4.296875 C 0.40625 -5.859375 0.890625 -7.035156 1.011719 -8.484375 C 0.875 -6.335938 0.609375 -4.121094 0.496094 -2.015625 C 0.46875 -2.738281 0.398438 -3.632812 0.421875 -4.296875 Z M 0.796875 0.28125 C 0.796875 0.425781 0.597656 0.65625 0.605469 0.839844 C 0.566406 0.226562 0.542969 -0.3125 0.546875 -0.898438 C 0.570312 -0.503906 0.773438 -0.113281 0.796875 0.28125 Z M 4.367188 -18.15625 L 4.074219 -16.191406 L 4.339844 -18.113281 Z M 4.367188 -18.300781 C 4.382812 -18.234375 4.351562 -18.226562 4.359375 -18.191406 C 4.351562 -18.226562 4.351562 -18.226562 4.367188 -18.300781 Z M 4.402344 -18.457031 L 4.378906 -18.414062 L 4.394531 -18.492188 Z M 5.832031 -14.5 C 5.824219 -14.535156 5.859375 -14.542969 5.851562 -14.578125 C 5.859375 -14.542969 5.832031 -14.5 5.832031 -14.5 Z M 5.832031 -14.5 "/></g></g></g><g fill="#ffffff" fill-opacity="1"><g transform="translate(175.351097, 199.444419)"><g><path d="M 15.53125 -12.539062 C 15.3125 -13.289062 14.851562 -12.484375 14.710938 -12.160156 C 14.421875 -11.394531 14.175781 -10.605469 13.921875 -9.851562 C 13.332031 -8.214844 12.742188 -6.578125 12 -4.976562 C 9.507812 0.257812 10.105469 -8.128906 9.847656 -7.992188 C 9.71875 -7.925781 9.738281 -7.382812 9.730469 -7.273438 C 9.707031 -8.578125 9.863281 -10.1875 10.226562 -11.550781 C 10.425781 -12.398438 10.722656 -13.128906 9.832031 -13.789062 C 8.183594 -15.03125 7.042969 -13.261719 6.476562 -11.992188 C 5.8125 -13.21875 4.660156 -14.980469 2.972656 -14.574219 C 2.210938 -14.390625 1.855469 -13.902344 1.449219 -13.332031 C 1.1875 -13.050781 0.953125 -12.957031 0.738281 -12.648438 C 0.363281 -12.230469 0.171875 -11.671875 -0.0390625 -11.183594 C -0.792969 -9.179688 -1.097656 -6.808594 -0.992188 -4.71875 C -0.933594 -3.710938 -0.742188 -2.628906 -0.234375 -1.730469 C 0.0703125 -1.21875 0.988281 -0.128906 1.757812 -0.425781 C 1.792969 -0.433594 1.714844 -0.449219 1.59375 -0.496094 C 2.109375 -0.472656 2.644531 -0.675781 2.992188 -1.050781 C 3.042969 -0.988281 2.671875 -0.71875 2.671875 -0.71875 C 3.191406 -0.222656 5.191406 -4.316406 5.324219 -4.675781 C 5.621094 -5.40625 5.773438 -6.136719 6.03125 -6.890625 C 6.222656 -7.445312 6.554688 -8.183594 6.777344 -8.785156 C 6.800781 -8.535156 6.875 -8.222656 6.875 -8.222656 C 6.730469 -6.109375 6.660156 -3.832031 7.976562 -2 C 8.605469 -1.058594 9.769531 -0.316406 10.890625 -0.808594 C 11.882812 -1.230469 12.503906 -2.4375 12.929688 -3.378906 C 13.472656 -4.457031 13.886719 -5.613281 14.292969 -6.804688 C 14.617188 -7.871094 14.910156 -8.925781 15.109375 -10.066406 C 15.226562 -10.789062 15.792969 -11.761719 15.53125 -12.539062 Z M 5.703125 -9.910156 C 5.585938 -9.625 5.472656 -9.34375 5.394531 -9.070312 L 4.804688 -7.578125 C 4.429688 -6.574219 4.007812 -5.597656 3.542969 -4.648438 C 3.429688 -4.367188 2.863281 -3.097656 2.492188 -3.117188 C 1.933594 -3.164062 2.050781 -5.089844 2.054688 -5.382812 C 2.042969 -5.890625 2.585938 -11.636719 3.042969 -11.855469 C 2.414062 -11.742188 1.921875 -5.023438 1.945312 -4.480469 C 1.8125 -6.234375 2.03125 -8.039062 2.347656 -9.757812 C 2.535156 -10.640625 2.890625 -12.949219 4.027344 -13.222656 C 4.644531 -13.375 5.09375 -12.132812 5.296875 -11.742188 C 5.242188 -11.804688 4.691406 -12.730469 4.667969 -12.6875 C 4.527344 -12.507812 5.675781 -10.777344 5.742188 -10.503906 C 5.808594 -10.226562 5.808594 -10.226562 5.703125 -9.910156 Z M 6.902344 -8.414062 C 6.902344 -8.414062 6.890625 -8.921875 6.898438 -9.03125 L 7.011719 -9.316406 Z M 5.871094 -10.425781 L 5.785156 -10.769531 C 5.921875 -10.65625 5.949219 -10.550781 5.871094 -10.425781 Z M 5.871094 -10.425781 "/></g></g></g><g fill="#ffffff" fill-opacity="1"><g transform="translate(190.370059, 195.817192)"><g><path d="M 12.105469 -11.785156 C 11.679688 -12.628906 11.144531 -11.222656 11.023438 -10.976562 L 9.742188 -7.96875 L 8.472656 -5.074219 L 7.78125 -3.558594 C 7.710938 -3.394531 7.1875 -2.246094 7.257812 -2.261719 C 7.308594 -2.347656 7.414062 -2.375 7.492188 -2.5 C 7.105469 -1.824219 5.628906 0.355469 5.183594 0.0234375 C 4.824219 -0.253906 5.234375 -1.882812 5.253906 -2.253906 C 5.390625 -3.34375 5.484375 -4.460938 5.667969 -5.527344 C 5.875 -6.632812 6.148438 -7.757812 6.320312 -8.855469 C 6.476562 -10.023438 5.765625 -10.253906 4.707031 -10.253906 C 4.234375 -10.25 3.683594 -10.113281 3.148438 -10.058594 C 3.15625 -10.023438 3.191406 -10.03125 3.191406 -10.03125 C 3.65625 -10.070312 4.320312 -10.195312 4.914062 -10.15625 C 4.027344 -10.199219 3.019531 -9.84375 2.324219 -9.859375 C 1.851562 -9.855469 1.574219 -9.789062 1.519531 -10.320312 C 1.421875 -11.027344 1.96875 -11.925781 2.050781 -12.636719 C 2.0625 -12.605469 1.96875 -11.925781 2.003906 -11.933594 C 2.191406 -11.90625 2.234375 -12.9375 2.203125 -13.074219 C 2.125 -13.238281 1.589844 -13.65625 1.601562 -13.441406 L 1.699219 -13.355469 C -0.230469 -14.09375 -1.628906 -11.273438 -0.875 -9.671875 C -0.75 -9.445312 -0.578125 -9.339844 -0.410156 -9.089844 C -0.289062 -8.898438 -0.300781 -8.640625 -0.0273438 -8.417969 C 0.914062 -7.695312 2.230469 -7.976562 3.214844 -8.433594 C 3.101562 -8.152344 2.207031 -3.851562 2.316406 -3.839844 L 2.285156 -2.921875 C 2.242188 -2.949219 2.3125 -3.257812 2.242188 -3.242188 C 1.996094 -3.214844 1.996094 -1.101562 2 -0.921875 C 2.0625 -0.0625 2.273438 0.65625 2.800781 1.328125 C 3.125 1.761719 3.464844 2.117188 3.980469 2.285156 C 4.460938 2.460938 5.007812 2.472656 5.46875 2.253906 C 5.621094 2.144531 6.167969 1.535156 6.003906 1.613281 L 6.222656 1.449219 C 6.195312 1.492188 6.167969 1.535156 6.175781 1.570312 C 6.289062 1.582031 7.566406 -0.078125 7.738281 -0.265625 C 8.617188 -1.460938 9.238281 -2.816406 9.789062 -4.152344 C 10.335938 -5.523438 10.914062 -6.902344 11.421875 -8.265625 C 11.667969 -8.90625 11.878906 -9.542969 12.015625 -10.195312 C 12.121094 -10.65625 12.324219 -11.328125 12.105469 -11.785156 Z M 2.800781 -5.160156 C 2.890625 -5.839844 3.027344 -6.492188 3.195312 -7.152344 C 3.238281 -7.273438 3.421875 -8.628906 3.644531 -8.757812 C 3.5 -8.613281 3.183594 -6.75 3.085938 -6.398438 L 2.796875 -4.722656 C 2.652344 -3.8125 2.480469 -2.859375 2.457031 -1.90625 C 2.449219 -2.996094 2.621094 -4.097656 2.800781 -5.160156 Z M 3.570312 1.652344 C 3.84375 1.878906 4.1875 2.089844 4.597656 2.132812 C 4.265625 2.105469 3.945312 2 3.691406 1.84375 C 3.726562 1.835938 3.734375 1.871094 3.742188 1.902344 C 3.46875 1.679688 3.050781 1.160156 2.992188 1.0625 C 2.789062 0.675781 2.636719 0.203125 2.570312 -0.21875 C 2.488281 -0.566406 2.457031 -0.847656 2.449219 -1.175781 L 2.460938 -1.140625 C 2.5 -0.675781 2.570312 -0.21875 2.722656 0.253906 L 2.765625 0.425781 C 2.722656 0.398438 2.714844 0.367188 2.714844 0.367188 C 2.714844 0.367188 2.722656 0.398438 2.773438 0.460938 L 2.78125 0.496094 L 3.09375 1.183594 L 2.882812 0.761719 C 3 0.953125 3.265625 1.289062 3.527344 1.628906 L 3.484375 1.601562 C 3.496094 1.636719 3.539062 1.660156 3.578125 1.6875 Z M 1.789062 -9.949219 C 1.996094 -9.851562 2.3125 -9.894531 2.632812 -9.933594 C 2.347656 -9.902344 2.089844 -9.914062 1.886719 -10.007812 C 1.886719 -10.007812 1.636719 -10.132812 1.585938 -10.191406 C 1.601562 -10.121094 1.714844 -9.96875 1.789062 -9.949219 Z M 6.058594 -8.136719 L 5.699219 -6.445312 L 6.050781 -8.171875 Z M 2.460938 -1.285156 C 2.46875 -1.253906 2.441406 -1.210938 2.449219 -1.175781 L 2.441406 -1.210938 C 2.433594 -1.246094 2.46875 -1.253906 2.460938 -1.285156 Z M 6.066406 -8.246094 L 6.074219 -8.214844 L 6.039062 -8.203125 Z M 6.066406 -8.246094 L 6.074219 -8.214844 L 6.039062 -8.203125 Z M 2.386719 -1.742188 C 2.378906 -1.777344 2.40625 -1.820312 2.386719 -1.890625 C 2.40625 -1.820312 2.378906 -1.777344 2.386719 -1.742188 Z M 3.289062 1.394531 C 3.289062 1.394531 3.332031 1.417969 3.339844 1.453125 C 3.332031 1.417969 3.296875 1.425781 3.289062 1.394531 Z M 1.605469 -10.269531 C 1.570312 -10.261719 1.578125 -10.226562 1.578125 -10.226562 Z M 1.605469 -10.269531 "/></g></g></g><g fill="#ffffff" fill-opacity="1"><g transform="translate(201.978754, 193.013578)"><g><path d="M 15.53125 -12.539062 C 15.3125 -13.289062 14.851562 -12.484375 14.710938 -12.160156 C 14.421875 -11.394531 14.175781 -10.605469 13.921875 -9.851562 C 13.332031 -8.214844 12.742188 -6.578125 12 -4.976562 C 9.507812 0.257812 10.105469 -8.128906 9.847656 -7.992188 C 9.71875 -7.925781 9.738281 -7.382812 9.730469 -7.273438 C 9.707031 -8.578125 9.863281 -10.1875 10.226562 -11.550781 C 10.425781 -12.398438 10.722656 -13.128906 9.832031 -13.789062 C 8.183594 -15.03125 7.042969 -13.261719 6.476562 -11.992188 C 5.8125 -13.21875 4.660156 -14.980469 2.972656 -14.574219 C 2.210938 -14.390625 1.855469 -13.902344 1.449219 -13.332031 C 1.1875 -13.050781 0.953125 -12.957031 0.738281 -12.648438 C 0.363281 -12.230469 0.171875 -11.671875 -0.0390625 -11.183594 C -0.792969 -9.179688 -1.097656 -6.808594 -0.992188 -4.71875 C -0.933594 -3.710938 -0.742188 -2.628906 -0.234375 -1.730469 C 0.0703125 -1.21875 0.988281 -0.128906 1.757812 -0.425781 C 1.792969 -0.433594 1.714844 -0.449219 1.59375 -0.496094 C 2.109375 -0.472656 2.644531 -0.675781 2.992188 -1.050781 C 3.042969 -0.988281 2.671875 -0.71875 2.671875 -0.71875 C 3.191406 -0.222656 5.191406 -4.316406 5.324219 -4.675781 C 5.621094 -5.40625 5.773438 -6.136719 6.03125 -6.890625 C 6.222656 -7.445312 6.554688 -8.183594 6.777344 -8.785156 C 6.800781 -8.535156 6.875 -8.222656 6.875 -8.222656 C 6.730469 -6.109375 6.660156 -3.832031 7.976562 -2 C 8.605469 -1.058594 9.769531 -0.316406 10.890625 -0.808594 C 11.882812 -1.230469 12.503906 -2.4375 12.929688 -3.378906 C 13.472656 -4.457031 13.886719 -5.613281 14.292969 -6.804688 C 14.617188 -7.871094 14.910156 -8.925781 15.109375 -10.066406 C 15.226562 -10.789062 15.792969 -11.761719 15.53125 -12.539062 Z M 5.703125 -9.910156 C 5.585938 -9.625 5.472656 -9.34375 5.394531 -9.070312 L 4.804688 -7.578125 C 4.429688 -6.574219 4.007812 -5.597656 3.542969 -4.648438 C 3.429688 -4.367188 2.863281 -3.097656 2.492188 -3.117188 C 1.933594 -3.164062 2.050781 -5.089844 2.054688 -5.382812 C 2.042969 -5.890625 2.585938 -11.636719 3.042969 -11.855469 C 2.414062 -11.742188 1.921875 -5.023438 1.945312 -4.480469 C 1.8125 -6.234375 2.03125 -8.039062 2.347656 -9.757812 C 2.535156 -10.640625 2.890625 -12.949219 4.027344 -13.222656 C 4.644531 -13.375 5.09375 -12.132812 5.296875 -11.742188 C 5.242188 -11.804688 4.691406 -12.730469 4.667969 -12.6875 C 4.527344 -12.507812 5.675781 -10.777344 5.742188 -10.503906 C 5.808594 -10.226562 5.808594 -10.226562 5.703125 -9.910156 Z M 6.902344 -8.414062 C 6.902344 -8.414062 6.890625 -8.921875 6.898438 -9.03125 L 7.011719 -9.316406 Z M 5.871094 -10.425781 L 5.785156 -10.769531 C 5.921875 -10.65625 5.949219 -10.550781 5.871094 -10.425781 Z M 5.871094 -10.425781 "/></g></g></g><g fill="#ffffff" fill-opacity="1"><g transform="translate(216.997715, 189.386352)"><g><path d="M 18.332031 -13.324219 L 18.324219 -13.359375 C 17.84375 -14.445312 16.75 -12.175781 16.585938 -11.953125 C 15.851562 -10.609375 15.210938 -9.179688 14.609375 -7.757812 C 14.011719 -6.300781 13.449219 -4.851562 12.820312 -3.386719 C 12.519531 -2.660156 12.214844 -1.964844 11.832031 -1.289062 C 11.707031 -1.042969 11.4375 -0.355469 11.125 -0.28125 C 9.921875 0.0117188 9.679688 -5.070312 9.632812 -5.863281 C 9.515625 -7.257812 9.183594 -9.074219 9.789062 -10.351562 C 9.929688 -10.675781 11.546875 -14.238281 11.546875 -14.238281 C 11.472656 -14.257812 11.277344 -13.84375 11.15625 -13.597656 L 12.15625 -15.953125 L 12.226562 -16.117188 L 12.257812 -16.125 L 12.226562 -16.117188 L 12.410156 -16.5625 C 12.453125 -16.535156 12.433594 -16.457031 12.417969 -16.382812 L 12.644531 -16.800781 L 13.257812 -18.1875 C 13.6875 -19.277344 14.066406 -20.425781 14.417969 -21.53125 C 14.964844 -23.339844 15.691406 -25.921875 14.535156 -27.6875 C 13.675781 -28.972656 11.714844 -28.792969 10.558594 -28 C 9.710938 -27.433594 9.09375 -26.515625 8.621094 -25.601562 C 8.386719 -25.070312 8.15625 -24.503906 7.972656 -23.914062 C 7.902344 -23.75 7.71875 -22.539062 7.648438 -22.375 L 7.683594 -22.386719 C 7.570312 -21.957031 7.453125 -21.527344 7.40625 -21.113281 C 7.410156 -21.40625 7.449219 -22 7.5625 -22.136719 C 7.335938 -21.863281 7.335938 -20.804688 7.292969 -20.6875 C 6.675781 -17.511719 6.234375 -14.339844 6.140625 -11.109375 C 4.953125 -11.953125 3.03125 -13.421875 1.570312 -12.375 C 0.359375 -11.5 -0.300781 -9.847656 -0.6875 -8.4375 C -1.042969 -7.1875 -0.941406 -6.007812 -1.128906 -4.832031 C -1.480469 -2.816406 -0.953125 1.03125 1.867188 0.933594 C 2.734375 0.90625 3.367188 0.207031 3.914062 -0.398438 C 4.878906 -1.542969 5.738281 -2.808594 6.523438 -4.089844 C 6.792969 -2.222656 7.078125 0.625 8.910156 1.714844 C 11.183594 3.132812 12.402344 0.175781 13.171875 -1.46875 C 14.152344 -3.601562 14.773438 -5.863281 15.769531 -7.929688 C 16.257812 -8.921875 16.75 -9.914062 17.289062 -10.847656 C 17.707031 -11.53125 18.644531 -12.488281 18.332031 -13.324219 Z M 6.203125 -7.988281 C 6.191406 -7.875 6.210938 -7.808594 6.210938 -7.808594 C 6.269531 -6.949219 6.445312 -6.222656 6 -5.496094 C 5.617188 -4.820312 5.191406 -4.171875 4.765625 -3.519531 C 4.363281 -2.914062 3.464844 -1.203125 2.65625 -1.078125 C 1.667969 -0.949219 1.859375 -3.328125 2.015625 -4.789062 C 1.832031 -3.285156 1.546875 -0.847656 2.699219 -1.054688 C 3.019531 -1.09375 3.46875 -1.492188 3.824219 -1.980469 C 3.503906 -1.503906 2.9375 -0.820312 2.476562 -0.925781 C 1.597656 -1.078125 1.8125 -3.210938 1.820312 -3.792969 C 1.882812 -5.488281 2.171875 -7.160156 2.582031 -8.792969 C 2.785156 -9.605469 3.054688 -10.910156 3.761719 -11.15625 L 3.613281 -11.007812 C 3.640625 -11.050781 3.671875 -11.0625 3.707031 -11.070312 C 3.933594 -11.195312 4.214844 -11.082031 4.421875 -10.984375 C 4.945312 -10.785156 5.359375 -10.265625 5.777344 -9.890625 C 6.257812 -9.421875 6.15625 -8.78125 6.167969 -8.125 Z M 9.828125 -17.289062 C 9.820312 -17.320312 9.800781 -17.390625 9.828125 -17.433594 L 9.820312 -17.46875 C 9.828125 -17.578125 9.855469 -17.621094 9.855469 -17.621094 L 9.847656 -17.65625 C 10.105469 -20.054688 10.4375 -22.464844 11.195312 -24.765625 C 11.378906 -25.355469 11.890625 -27.15625 12.792969 -26.902344 C 13.144531 -26.804688 13.320312 -26.371094 13.394531 -26.0625 C 14.035156 -24.027344 12.96875 -21.183594 12.335938 -19.277344 C 11.597656 -17.058594 10.710938 -14.839844 9.722656 -12.738281 L 10.289062 -13.714844 L 10.769531 -14.742188 L 9.5625 -12.046875 L 9.394531 -11.675781 L 9.289062 -11.503906 C 9.273438 -11.722656 9.398438 -11.96875 9.511719 -12.25 C 9.460938 -12.167969 9.40625 -12.082031 9.390625 -12.003906 C 9.480469 -13.59375 9.605469 -15.191406 9.761719 -16.796875 C 9.738281 -16.753906 9.753906 -16.832031 9.757812 -16.976562 L 9.816406 -17.175781 C 9.808594 -17.210938 9.800781 -17.246094 9.828125 -17.289062 Z M 7.617188 -13.761719 C 7.589844 -13.574219 7.574219 -12.730469 7.496094 -12.601562 C 7.503906 -12.570312 7.476562 -12.527344 7.441406 -12.519531 C 7.632812 -12.929688 7.355469 -13.335938 7.390625 -13.78125 C 7.410156 -14.003906 7.664062 -14.46875 7.667969 -14.757812 C 7.734375 -14.484375 7.675781 -13.960938 7.617188 -13.761719 Z M 4.441406 -2.894531 C 5.121094 -3.863281 5.753906 -4.855469 6.347656 -5.871094 C 6.386719 -5.40625 5.503906 -4.390625 5.207031 -3.957031 C 4.867188 -3.398438 4.457031 -2.828125 4.042969 -2.289062 L 4.007812 -2.28125 Z M 7.476562 -17.046875 C 7.441406 -16.601562 7.359375 -16.179688 7.246094 -15.75 C 7.292969 -16.308594 7.269531 -16.851562 7.394531 -17.394531 C 7.511719 -17.820312 7.636719 -18.363281 7.699219 -18.851562 C 7.660156 -18.257812 7.527344 -17.605469 7.476562 -17.046875 Z M 9.816406 -17.175781 L 9.761719 -16.796875 C 9.753906 -16.832031 9.773438 -16.910156 9.757812 -16.976562 Z M 3.472656 -10.832031 C 3.359375 -10.695312 3.289062 -10.53125 3.257812 -10.523438 C 3.324219 -10.539062 3.394531 -10.703125 3.472656 -10.832031 Z M 4.421875 -11.132812 C 4.5 -11.113281 4.578125 -11.097656 4.660156 -11.042969 Z M 11.09375 -13.398438 C 11.085938 -13.433594 11.113281 -13.476562 11.136719 -13.519531 C 11.121094 -13.441406 11.09375 -13.398438 11.09375 -13.398438 Z M 11.136719 -13.519531 L 11.15625 -13.597656 C 11.164062 -13.5625 11.136719 -13.519531 11.136719 -13.519531 Z M 11.136719 -13.519531 "/></g></g></g><g fill="#ffffff" fill-opacity="1"><g transform="translate(234.841339, 185.076941)"><g><path d="M 6.980469 -10.65625 C 6.804688 -11.085938 6.355469 -10.832031 6.15625 -10.601562 C 5.894531 -10.320312 4.71875 -7.628906 4.898438 -7.492188 C 5.003906 -7.515625 5.074219 -7.535156 5.125 -7.617188 C 4.785156 -6.917969 4.046875 -6.046875 3.515625 -5.371094 C 3.210938 -4.96875 2.488281 -3.882812 1.871094 -4.027344 C 0.558594 -4.328125 1.9375 -9.035156 1.828125 -9.046875 C 1.714844 -9.054688 1.320312 -6.917969 1.253906 -6.429688 C 1.378906 -7.734375 1.636719 -9.074219 2.035156 -10.300781 C 2.023438 -10.1875 1.960938 -9.992188 2.03125 -10.007812 C 2.109375 -9.988281 2.449219 -10.839844 2.332031 -10.882812 C 2.296875 -10.875 2.226562 -10.855469 2.203125 -10.816406 C 2.28125 -10.941406 2.445312 -11.019531 2.394531 -11.226562 C 2.3125 -11.570312 1.433594 -11.722656 1.132812 -11.761719 C 0.414062 -11.878906 -0.257812 -11.789062 -0.691406 -11.320312 C -1.28125 -10.738281 -1.21875 -9.878906 -1.320312 -9.089844 C -1.339844 -8.867188 -1.402344 -6.261719 -1.257812 -6.261719 C -1.195312 -6.3125 -1.203125 -6.34375 -1.1875 -6.421875 L -1.140625 -5.777344 C -1.175781 -5.769531 -1.148438 -5.957031 -1.214844 -5.941406 C -1.492188 -5.875 -1.125 -4.652344 -1.046875 -4.488281 C -0.757812 -3.902344 -0.167969 -3.570312 0.335938 -3.144531 C 0.617188 -2.882812 0.898438 -2.625 1.257812 -2.492188 C 1.746094 -2.28125 1.394531 -2.523438 1.703125 -2.453125 L 1.636719 -2.4375 C 1.652344 -2.222656 3.042969 -2.195312 3.3125 -2.292969 C 4.449219 -2.863281 4.953125 -4.550781 5.417969 -5.648438 C 5.875 -6.632812 6.226562 -7.59375 6.601562 -8.59375 C 6.839844 -9.125 7.277344 -10.035156 6.980469 -10.65625 Z M -0.0976562 -13.539062 C -0.00390625 -13.453125 -0.0742188 -13.292969 0.199219 -13.210938 C 0.464844 -13.167969 0.570312 -13.339844 0.761719 -13.457031 C 1.132812 -13.730469 1.335938 -14.25 1.578125 -14.601562 C 1.664062 -14.695312 1.464844 -14.613281 1.464844 -14.613281 C 1.816406 -15.132812 1.550781 -14.558594 1.90625 -14.902344 C 2.253906 -15.277344 2.214844 -15.742188 2.46875 -16.203125 C 2.097656 -15.929688 1.84375 -15.613281 1.652344 -15.203125 C 1.414062 -14.671875 1.222656 -14.40625 0.902344 -14.074219 C 1.242188 -14.484375 1.375 -14.84375 1.585938 -15.480469 C 1.664062 -15.605469 1.75 -15.703125 1.871094 -15.804688 C 1.742188 -15.882812 1.71875 -15.984375 1.832031 -16.121094 C 1.894531 -16.320312 2.082031 -16.4375 2.144531 -16.636719 C 2.257812 -16.917969 2.148438 -17.21875 2.296875 -17.511719 C 2.4375 -17.691406 2.652344 -17.851562 2.757812 -18.023438 C 3 -18.375 3.222656 -18.972656 2.976562 -19.386719 C 2.738281 -19.769531 2.269531 -20.203125 1.832031 -20.351562 C 1.324219 -20.484375 0.679688 -20.4375 0.246094 -20.113281 C 0.152344 -20.054688 -0.238281 -19.851562 -0.0664062 -19.746094 C -0.015625 -19.6875 0.0195312 -19.695312 0.0898438 -19.710938 C -0.164062 -19.394531 -0.578125 -18.859375 0.210938 -18.757812 C 0.15625 -18.671875 0.300781 -18.378906 0.308594 -18.34375 C 0.335938 -18.09375 0.160156 -16.703125 0 -16.007812 L 0.261719 -16.726562 C 0.148438 -16.152344 -0.0117188 -15.605469 -0.222656 -15.113281 C -0.125 -15.613281 -0.414062 -14.996094 -0.386719 -14.894531 C -0.808594 -14.972656 -0.445312 -13.929688 -0.386719 -13.835938 C -0.378906 -13.800781 -0.0976562 -13.539062 -0.0976562 -13.539062 Z M 1.226562 -5.183594 L 1.234375 -5.148438 L 1.21875 -4.925781 L 1.21875 -5.21875 C 1.246094 -5.261719 1.246094 -5.261719 1.226562 -5.183594 Z M -0.105469 -15.691406 C -0.105469 -15.691406 -0.0546875 -15.777344 -0.0195312 -15.929688 Z M -0.292969 -14.953125 C -0.285156 -14.917969 -0.285156 -14.917969 -0.3125 -14.875 C -0.3125 -14.875 -0.320312 -14.910156 -0.355469 -14.902344 C -0.320312 -14.910156 -0.320312 -14.910156 -0.292969 -14.953125 Z M -0.292969 -14.953125 "/></g></g></g><g fill="#ffffff" fill-opacity="1"><g transform="translate(241.35185, 183.504589)"><g><path d="M 11.722656 -11.398438 C 11.503906 -11.859375 11.210938 -11.859375 10.898438 -11.640625 C 10.320312 -11.171875 9.832031 -10.324219 9.3125 -9.761719 C 8.113281 -8.523438 6.878906 -7.457031 5.542969 -6.335938 C 5.535156 -6.367188 5.484375 -6.429688 5.425781 -6.523438 C 5.5 -6.359375 5.484375 -6.285156 5.457031 -6.242188 C 4.753906 -7.640625 4.054688 -9.039062 3.410156 -10.488281 C 3.707031 -9.867188 4.285156 -8.835938 4.75 -7.964844 C 4.089844 -9.339844 3.277344 -11.039062 3.3125 -11.046875 C 3.25 -10.996094 3.269531 -10.925781 3.285156 -10.859375 C 3.117188 -11.253906 2.886719 -11.746094 2.847656 -12.210938 C 2.757812 -12.734375 2.925781 -13.25 2.980469 -13.773438 C 3.003906 -13.523438 3.011719 -13.199219 3.011719 -13.199219 C 3.226562 -13.214844 3.054688 -14.523438 3.023438 -14.660156 C 2.9375 -14.859375 2.332031 -15.402344 2.375 -15.230469 C 1.234375 -15.867188 -0.132812 -13.53125 -0.207031 -12.640625 C -0.28125 -12.039062 -0.140625 -11.453125 0.0351562 -10.875 C 0.210938 -10.296875 0.507812 -9.820312 0.8125 -9.3125 C 1.015625 -8.925781 0.945312 -8.613281 1.089844 -8.175781 C 1.324219 -7.503906 1.730469 -6.871094 2.027344 -6.25 C 2.289062 -5.765625 2.988281 -4.84375 3 -4.335938 C 3.046875 -3.835938 2.113281 -3.171875 1.734375 -2.789062 C 1.238281 -2.269531 0.761719 -1.679688 0.285156 -1.089844 C -0.558594 -0.046875 -1.417969 1.21875 -1.523438 2.59375 C -1.550781 2.78125 -1.609375 3.597656 -1.335938 3.675781 C -1.292969 3.703125 -1.332031 3.09375 -1.3125 3.015625 C -1.210938 5.398438 1.292969 5.960938 3.402344 5.484375 C 5.796875 4.980469 7.117188 3.203125 7.429688 0.867188 C 7.550781 -0.144531 7.417969 -1.136719 7.152344 -2.09375 C 6.992188 -2.746094 6.777344 -3.351562 6.523438 -3.945312 C 6.320312 -4.480469 6.257812 -4.429688 6.5625 -4.832031 C 6.789062 -5.105469 7.167969 -5.339844 7.410156 -5.546875 C 8.375 -6.398438 9.207031 -7.328125 10.03125 -8.292969 C 10.628906 -8.984375 12.136719 -10.296875 11.730469 -11.367188 Z M 0.664062 3.8125 C -0.296875 3.753906 0.257812 2.125 0.460938 1.601562 C 0.808594 0.789062 1.445312 0.0898438 2.015625 -0.558594 L 2.882812 -1.5 C 2.96875 -1.59375 3.5 -2.265625 3.308594 -2.148438 L 3.664062 -2.488281 L 3.472656 -2.222656 C 3.535156 -2.277344 3.628906 -2.335938 3.683594 -2.421875 C 3.914062 -1.601562 4.117188 -0.773438 4.074219 0.109375 C 4.074219 0.257812 3.75 1.792969 3.542969 2.132812 L 3.679688 1.957031 C 3.460938 2.410156 3.191406 2.800781 2.835938 3.144531 C 2.828125 3.109375 3.089844 2.828125 3.046875 2.800781 L 2.171875 3.414062 C 1.714844 3.632812 1.191406 3.871094 0.664062 3.8125 Z M 5.25 3.765625 C 4.445312 4.359375 3.625 4.738281 2.703125 5 C 4.367188 4.488281 5.921875 3.238281 6.582031 1.582031 C 6.386719 2.433594 6.042969 3.132812 5.25 3.765625 Z M 5.398438 -6.628906 C 5.308594 -6.859375 5.15625 -7.1875 4.960938 -7.542969 C 5.121094 -7.179688 5.28125 -6.816406 5.398438 -6.628906 Z M 6.714844 -3.152344 C 6.671875 -3.179688 6.652344 -3.246094 6.636719 -3.316406 C 6.652344 -3.246094 6.707031 -3.1875 6.714844 -3.152344 Z M 6.714844 -3.152344 "/></g></g></g><g fill="#ffffff" fill-opacity="1"><g transform="translate(252.512726, 180.809128)"><g><path d="M 11.140625 -11.695312 C 11.148438 -11.664062 11.148438 -11.664062 11.105469 -11.6875 L 11.097656 -11.722656 C 10.320312 -12.519531 9.90625 -11.070312 9.703125 -10.546875 C 9.308594 -9.613281 8.941406 -8.722656 8.496094 -7.851562 C 8.128906 -7.105469 7.726562 -6.351562 7.472656 -5.597656 C 7.488281 -5.527344 7.460938 -5.339844 7.460938 -5.339844 C 7.375 -5.097656 7.207031 -4.875 7.085938 -4.628906 C 6.851562 -4.242188 6.625 -3.824219 6.355469 -3.429688 C 5.953125 -2.824219 3.71875 0.597656 2.914062 -1.070312 C 2.5 -1.878906 2.515625 -3.015625 2.488281 -3.882812 C 2.484375 -4.355469 2.488281 -4.792969 2.449219 -5.257812 C 2.433594 -5.621094 2.25 -5.941406 2.335938 -6.324219 C 2.390625 -6.558594 2.433594 -6.53125 2.65625 -6.660156 L 3.195312 -7.007812 C 3.539062 -7.234375 3.886719 -7.464844 4.179688 -7.753906 C 4.621094 -8.191406 5.011719 -8.6875 5.371094 -9.171875 C 6.222656 -10.328125 7.101562 -11.667969 7.222656 -13.121094 C 7.28125 -13.9375 7.117188 -14.773438 6.476562 -15.3125 C 5.886719 -15.789062 5.054688 -15.914062 4.332031 -15.886719 C 2.386719 -15.78125 1.234375 -14.371094 0.503906 -12.703125 C -0.414062 -10.765625 -0.859375 -8.542969 -0.816406 -6.402344 C -0.816406 -5.34375 -0.714844 -4.3125 -0.636719 -3.238281 C -0.558594 -2.164062 -0.429688 -1.171875 0.355469 -0.339844 C 0.238281 -0.675781 0.09375 -0.972656 0.0195312 -1.28125 C -0.0234375 -1.453125 0.00390625 -1.640625 -0.0273438 -1.78125 C -0.046875 -1.847656 -0.164062 -2.039062 -0.1875 -2.140625 C -0.265625 -2.453125 -0.253906 -2.710938 -0.257812 -3.035156 C -0.300781 -3.355469 -0.410156 -3.65625 -0.449219 -3.976562 C -0.5 -4.328125 -0.425781 -4.636719 -0.363281 -4.980469 C -0.328125 -5.28125 -0.351562 -5.53125 -0.3125 -5.832031 C -0.269531 -6.097656 -0.265625 -6.390625 -0.230469 -6.691406 C -0.238281 -6.871094 -0.113281 -7.121094 -0.0625 -7.351562 C -0.0898438 -7.015625 -0.230469 -6.691406 -0.234375 -6.398438 C -0.234375 -5.960938 -0.0585938 -5.527344 0.0078125 -5.105469 C 0.046875 -4.640625 0.015625 -4.160156 0.0625 -3.660156 C 0.101562 -3.195312 -0.00390625 -2.734375 0.0351562 -2.269531 C 0.0664062 -1.839844 0.00390625 -1.496094 0.136719 -1.089844 C 0.195312 -0.847656 0.289062 -0.617188 0.371094 -0.417969 C 0.472656 -0.152344 0.6875 -0.0195312 0.910156 0.144531 C 1.664062 0.691406 2.585938 1.050781 3.542969 1.078125 C 4.203125 1.101562 4.746094 0.933594 5.257812 0.480469 C 5.976562 -0.167969 6.535156 -1.03125 6.996094 -1.835938 C 7.421875 -2.632812 7.695312 -3.464844 8.046875 -4.277344 C 8.378906 -5.015625 8.824219 -5.742188 9.15625 -6.476562 L 10.433594 -9.339844 L 11.160156 -11.007812 C 11.285156 -11.257812 11.34375 -11.453125 11.140625 -11.695312 Z M 2.6875 -9.253906 C 2.707031 -9.332031 2.695312 -9.367188 2.695312 -9.367188 C 2.949219 -10.59375 3.042969 -11.855469 3.507812 -13.097656 L 3.929688 -14.074219 C 4.027344 -14.28125 4.191406 -14.648438 4.417969 -14.777344 C 4.910156 -15.003906 5.261719 -14.144531 5.3125 -13.789062 L 5.347656 -13.03125 C 5.363281 -12.816406 5.464844 -12.695312 5.472656 -12.515625 C 5.453125 -12.292969 5.308594 -12.148438 5.246094 -11.949219 L 4.84375 -11.050781 C 4.273438 -9.929688 3.46875 -8.894531 2.507812 -8.042969 C 2.585938 -8.464844 2.597656 -8.867188 2.6875 -9.253906 Z M 2.6875 -9.253906 "/></g></g></g></svg>