<svg xmlns="http://www.w3.org/2000/svg" xmlns:xlink="http://www.w3.org/1999/xlink" width="500" zoomAndPan="magnify" viewBox="0 0 375 374.999991" height="500" preserveAspectRatio="xMidYMid meet" version="1.0"><defs><g/><clipPath id="id1"><path d="M 221 191 L 263.964844 191 L 263.964844 230 L 221 230 Z M 221 191 " clip-rule="nonzero"/></clipPath><clipPath id="id2"><path d="M 110.964844 219 L 118 219 L 118 226 L 110.964844 226 Z M 110.964844 219 " clip-rule="nonzero"/></clipPath><clipPath id="id3"><path d="M 122 249 L 130 249 L 130 256.726562 L 122 256.726562 Z M 122 249 " clip-rule="nonzero"/></clipPath></defs><rect x="-37.5" width="450" fill="#000000" y="-37.499999" height="449.999989" fill-opacity="1"/><rect x="-37.5" width="450" fill="#ffffff" y="-37.499999" height="449.999989" fill-opacity="1"/><rect x="-37.5" width="450" fill="#000000" y="-37.499999" height="449.999989" fill-opacity="1"/><path fill="#8f27ad" d="M 162.117188 174.136719 L 203.058594 197.160156 C 203.726562 197.539062 204.507812 197.582031 205.210938 197.265625 C 205.894531 196.96875 206.386719 196.386719 206.558594 195.675781 C 207.835938 190.324219 206.042969 186.367188 201.074219 183.570312 L 174.777344 168.777344 C 172.691406 167.605469 170.71875 167.019531 168.839844 167.019531 C 166.25 167.019531 163.851562 168.136719 161.582031 170.375 C 161.058594 170.894531 160.8125 171.609375 160.914062 172.351562 C 161.015625 173.113281 161.453125 173.761719 162.117188 174.136719 " fill-opacity="1" fill-rule="nonzero"/><path fill="#8f27ad" d="M 203.175781 235.484375 C 196.625 238.332031 192.238281 237.414062 189.710938 236.144531 C 186.742188 234.652344 184.71875 231.910156 183.867188 228.230469 C 182.355469 221.679688 191.25 205.640625 195.238281 198.902344 L 187.21875 194.386719 C 184.105469 199.53125 176.488281 212.328125 174.296875 217.808594 L 173.898438 218.785156 C 169.988281 228.4375 166.753906 239.128906 177.910156 243.910156 C 192.917969 250.335938 204.261719 244.117188 207.363281 241.183594 C 208.871094 239.765625 208.851562 237.445312 207.972656 236.117188 C 206.824219 234.378906 204.726562 234.816406 203.175781 235.484375 " fill-opacity="1" fill-rule="nonzero"/><path fill="#8f27ad" d="M 168.9375 216.785156 L 169.328125 215.828125 C 171.667969 209.972656 179.320312 197.101562 182.546875 191.757812 L 174.847656 187.429688 C 170.695312 192.515625 158.652344 207.277344 154.386719 212.402344 C 149.851562 217.859375 145.050781 226.925781 146.425781 234.527344 C 147.152344 238.519531 149.585938 241.71875 153.660156 244.046875 C 161.789062 248.6875 167.925781 247.832031 171.503906 246.425781 C 160.230469 238.28125 166.226562 223.480469 168.9375 216.785156 " fill-opacity="1" fill-rule="nonzero"/><path fill="#8f27ad" d="M 150.269531 208.984375 C 154.339844 204.089844 165.523438 190.390625 170.113281 184.765625 L 163.492188 181.039062 L 157.289062 188.609375 C 154.6875 191.769531 150.496094 195.027344 146.050781 198.46875 C 137.101562 205.390625 126.96875 213.25 128.28125 221.441406 C 128.742188 224.300781 129.878906 226.234375 131.738281 227.355469 C 134.699219 229.121094 138.886719 228.554688 141.128906 228.046875 C 142.101562 221.796875 145.429688 214.808594 150.269531 208.984375 " fill-opacity="1" fill-rule="nonzero"/><g clip-path="url(#id1)"><path fill="#8f27ad" d="M 261.890625 191.992188 C 260.515625 191.449219 258.960938 192.121094 258.414062 193.496094 C 249.851562 215.109375 223.265625 224.527344 222.996094 224.621094 C 221.597656 225.101562 220.863281 226.632812 221.34375 228.019531 C 221.722656 229.125 222.761719 229.828125 223.867188 229.828125 C 224.160156 229.828125 224.457031 229.773438 224.738281 229.675781 C 225.933594 229.265625 253.910156 219.390625 263.394531 195.464844 C 263.933594 194.085938 263.265625 192.539062 261.890625 191.992188 " fill-opacity="1" fill-rule="nonzero"/></g><path fill="#8f27ad" d="M 243.636719 200.863281 C 244.589844 199.734375 244.441406 198.046875 243.304688 197.097656 C 242.175781 196.144531 240.480469 196.300781 239.535156 197.425781 C 229.429688 209.449219 214.375 213.472656 214.21875 213.511719 C 212.792969 213.882812 211.9375 215.34375 212.304688 216.769531 C 212.617188 217.976562 213.699219 218.777344 214.890625 218.777344 C 215.113281 218.777344 215.339844 218.742188 215.558594 218.6875 C 216.242188 218.515625 232.394531 214.242188 243.636719 200.863281 " fill-opacity="1" fill-rule="nonzero"/><path fill="#8f27ad" d="M 131.394531 237.777344 L 129.738281 237.777344 C 128.257812 237.777344 127.058594 238.972656 127.058594 240.449219 C 127.058594 241.929688 128.257812 243.125 129.738281 243.125 L 131.394531 243.125 C 132.871094 243.125 134.070312 241.929688 134.070312 240.449219 C 134.070312 238.972656 132.871094 237.777344 131.394531 237.777344 " fill-opacity="1" fill-rule="nonzero"/><path fill="#8f27ad" d="M 140.089844 247.015625 L 138.882812 247.972656 C 137.730469 248.890625 137.535156 250.578125 138.464844 251.726562 C 138.996094 252.390625 139.769531 252.730469 140.554688 252.730469 C 141.140625 252.730469 141.734375 252.542969 142.230469 252.148438 L 143.429688 251.191406 C 144.578125 250.269531 144.765625 248.578125 143.851562 247.429688 C 142.921875 246.277344 141.242188 246.089844 140.089844 247.015625 " fill-opacity="1" fill-rule="nonzero"/><g clip-path="url(#id2)"><path fill="#8f27ad" d="M 115.300781 219.761719 L 113.621094 219.761719 C 112.144531 219.761719 110.945312 220.957031 110.945312 222.433594 C 110.945312 223.914062 112.144531 225.101562 113.621094 225.101562 L 115.300781 225.101562 C 116.785156 225.101562 117.984375 223.914062 117.984375 222.433594 C 117.984375 220.957031 116.785156 219.761719 115.300781 219.761719 " fill-opacity="1" fill-rule="nonzero"/></g><path fill="#8f27ad" d="M 115.300781 233.453125 C 113.828125 233.453125 112.628906 234.652344 112.628906 236.125 L 112.628906 237.570312 C 112.628906 239.046875 113.828125 240.238281 115.300781 240.238281 C 116.785156 240.238281 117.984375 239.046875 117.984375 237.570312 L 117.984375 236.125 C 117.984375 234.652344 116.785156 233.453125 115.300781 233.453125 " fill-opacity="1" fill-rule="nonzero"/><g clip-path="url(#id3)"><path fill="#8f27ad" d="M 124.386719 250.257812 L 122.933594 252.417969 C 122.117188 253.644531 122.449219 255.308594 123.679688 256.125 C 124.132812 256.433594 124.652344 256.578125 125.160156 256.578125 C 126.027344 256.578125 126.871094 256.164062 127.390625 255.386719 L 128.832031 253.226562 C 129.65625 252 129.324219 250.34375 128.097656 249.519531 C 126.859375 248.691406 125.203125 249.03125 124.386719 250.257812 " fill-opacity="1" fill-rule="nonzero"/></g><path fill="#8f27ad" d="M 228.464844 120.21875 C 228.558594 120.078125 228.660156 119.933594 228.785156 119.808594 C 229.335938 119.234375 229.726562 118.722656 230.015625 118.207031 C 232.21875 114.300781 230.828125 109.332031 226.914062 107.125 C 226.675781 106.992188 226.425781 106.917969 226.179688 106.808594 C 224.367188 107.386719 223.3125 109.074219 222.25 111.171875 C 222.011719 111.640625 221.789062 112.074219 221.574219 112.429688 C 220.269531 114.597656 211.222656 131.800781 211.128906 131.972656 C 210.890625 132.421875 210.425781 132.6875 209.941406 132.6875 C 209.734375 132.6875 209.519531 132.632812 209.320312 132.53125 C 208.664062 132.191406 208.417969 131.378906 208.757812 130.726562 C 209.132812 130.015625 217.9375 113.285156 219.28125 111.054688 C 219.460938 110.742188 219.652344 110.363281 219.863281 109.957031 C 220.425781 108.863281 221.226562 107.355469 222.441406 106.117188 C 219.765625 106.269531 217.226562 107.730469 215.816406 110.222656 L 191.058594 159.441406 L 200.230469 164.609375 L 228.464844 120.21875 " fill-opacity="1" fill-rule="nonzero"/><path fill="#8f27ad" d="M 197.507812 169.210938 L 188.539062 164.167969 L 185.890625 168.894531 L 194.886719 173.953125 L 197.507812 169.210938 " fill-opacity="1" fill-rule="nonzero"/><path fill="#8f27ad" d="M 160.074219 179.082031 C 160.074219 179.082031 158.234375 177.578125 157.566406 176.414062 C 157.566406 176.414062 143.050781 194.621094 137.882812 199.800781 C 137.882812 199.800781 151.3125 191.148438 160.074219 179.082031 " fill-opacity="1" fill-rule="nonzero"/><path fill="#8f27ad" d="M 201.390625 201.972656 C 200.382812 201.808594 198.855469 201.066406 198.855469 201.066406 C 192.632812 209.429688 189.414062 220.550781 189.414062 220.550781 C 191.988281 212.894531 201.390625 201.972656 201.390625 201.972656 " fill-opacity="1" fill-rule="nonzero"/><g fill="#fafafa" fill-opacity="1"><g transform="translate(208.30659, 183.492237)"><g><path d="M 28.703125 -31.082031 C 28.199219 -32.132812 27.054688 -33.140625 25.910156 -33.277344 C 24.765625 -33.460938 24.902344 -32.867188 24.582031 -32.132812 L 21.238281 -24.628906 L 19.363281 -20.234375 C 18.949219 -19.269531 18.21875 -16.570312 17.394531 -16.203125 C 16.800781 -15.976562 15.746094 -16.113281 15.105469 -16.066406 L 13 -15.929688 C 11.765625 -15.792969 10.664062 -15.378906 9.429688 -15.378906 C 9.796875 -16.066406 10.070312 -16.800781 10.34375 -17.53125 C 10.757812 -18.492188 10.757812 -19.410156 11.214844 -20.371094 C 11.949219 -21.972656 12.542969 -23.621094 13.367188 -25.175781 C 13.824219 -26.09375 14.234375 -27.054688 14.648438 -27.96875 C 15.015625 -28.703125 15.105469 -29.523438 15.378906 -30.121094 C 15.699219 -30.667969 16.25 -31.171875 16.480469 -31.722656 C 16.84375 -32.773438 15.792969 -33.554688 14.878906 -33.875 C 14.191406 -34.148438 13.273438 -34.285156 12.816406 -33.644531 C 12.910156 -33.691406 12.726562 -33.050781 12.726562 -33.140625 C 12.589844 -32.820312 12.40625 -32.5 12.222656 -32.226562 C 10.253906 -28.472656 8.742188 -24.535156 7.140625 -20.597656 C 6.683594 -19.410156 6.179688 -18.21875 5.722656 -16.984375 C 5.492188 -16.433594 5.265625 -15.839844 4.988281 -15.289062 C 4.625 -14.554688 4.347656 -14.785156 3.523438 -14.554688 C 3.160156 -14.464844 2.425781 -14.328125 2.242188 -13.914062 C 1.832031 -13 3.203125 -12.359375 3.84375 -12.175781 C 2.792969 -8.699219 1.511719 -5.308594 0.550781 -1.785156 C 0.320312 -0.914062 -0.136719 0.136719 0.046875 1.097656 C 0.183594 2.105469 1.695312 3.753906 2.839844 3.523438 C 3.9375 3.296875 3.984375 1.191406 4.257812 0.273438 C 4.667969 -1.28125 5.171875 -2.839844 5.675781 -4.394531 C 6.089844 -5.769531 6.683594 -7.140625 6.957031 -8.558594 L 7.277344 -9.839844 C 7.507812 -10.484375 7.734375 -11.628906 8.148438 -12.128906 C 8.699219 -12.769531 10.4375 -12.910156 11.351562 -13 C 12.3125 -13.136719 13.273438 -13.273438 14.234375 -13.367188 C 15.152344 -13.414062 15.839844 -13.777344 16.664062 -13.914062 C 15.519531 -11.351562 14.738281 -8.605469 13.640625 -6.042969 C 12.863281 -4.210938 12.128906 -2.378906 11.488281 -0.457031 C 10.984375 1.097656 10.34375 2.746094 10.023438 4.347656 C 9.839844 5.308594 10.253906 6.179688 11.125 6.730469 C 13.136719 7.964844 13.6875 6.132812 14.234375 4.578125 C 15.242188 1.648438 16.433594 -1.234375 17.53125 -4.121094 C 18.035156 -5.539062 18.308594 -6.820312 18.949219 -8.195312 L 20.460938 -11.855469 C 20.828125 -12.679688 21.378906 -14.28125 22.15625 -14.695312 C 22.660156 -14.921875 22.933594 -15.015625 23.300781 -15.105469 C 23.984375 -15.289062 24.765625 -15.199219 25.496094 -15.378906 C 25.773438 -15.425781 26.640625 -15.5625 26.777344 -16.019531 C 26.871094 -16.433594 26.59375 -16.480469 26.320312 -16.570312 C 26.183594 -16.617188 26.09375 -16.34375 26.09375 -16.34375 C 25.910156 -16.296875 25.726562 -16.386719 25.542969 -16.34375 C 24.628906 -16.25 23.527344 -16.433594 22.613281 -16.433594 C 22.933594 -17.761719 23.664062 -18.949219 24.308594 -20.234375 L 26.503906 -24.582031 L 27.601562 -26.6875 C 27.878906 -27.28125 27.921875 -27.832031 28.105469 -28.335938 C 28.519531 -29.25 29.296875 -29.800781 28.703125 -31.082031 Z M 8.742188 -16.707031 C 8.054688 -15.105469 7.414062 -13.503906 6.820312 -11.902344 C 7.507812 -13.960938 8.148438 -15.929688 8.925781 -17.988281 C 9.703125 -20.050781 10.984375 -21.925781 11.902344 -23.894531 Z M 14.191406 1.738281 C 14.054688 2.015625 13.914062 2.242188 13.824219 2.519531 C 13.914062 2.015625 13.914062 1.511719 14.097656 1.007812 C 14.234375 0.457031 14.738281 0 15.015625 -0.503906 C 14.785156 0.273438 14.601562 1.007812 14.191406 1.738281 Z M 12.085938 -24.308594 L 11.992188 -24.078125 C 11.992188 -24.167969 12.039062 -24.214844 12.085938 -24.308594 Z M 12.085938 -24.308594 "/></g></g></g><g fill="#fafafa" fill-opacity="1"><g transform="translate(232.469299, 183.492237)"><g><path d="M 24.398438 -34.515625 C 22.980469 -34.101562 21.558594 -32.363281 20.554688 -31.355469 C 19.914062 -30.761719 19.269531 -30.121094 18.675781 -29.433594 C 18.265625 -28.976562 17.210938 -28.058594 17.121094 -27.417969 C 17.164062 -27.375 17.164062 -27.375 17.210938 -27.375 L 16.570312 -26.550781 C 16.523438 -26.503906 17.027344 -27.238281 17.027344 -27.238281 C 16.800781 -27.191406 16.386719 -26.320312 16.386719 -26.320312 C 15.105469 -24.671875 13.6875 -23.164062 12.496094 -21.421875 C 11.167969 -19.453125 10.070312 -17.441406 9.019531 -15.335938 C 9.613281 -17.53125 10.390625 -19.683594 11.261719 -21.789062 C 11.488281 -22.339844 14.007812 -28.289062 14.097656 -28.242188 C 13.960938 -28.289062 11.71875 -23.253906 11.582031 -22.980469 C 12.632812 -25.542969 13.777344 -28.058594 15.105469 -30.488281 C 15.015625 -30.304688 14.921875 -30.074219 14.96875 -30.074219 C 15.152344 -30.027344 16.066406 -31.8125 15.929688 -31.859375 L 15.792969 -31.769531 C 16.066406 -32.273438 16.203125 -32.546875 15.929688 -33.277344 C 15.65625 -34.011719 14.96875 -35.292969 14.007812 -34.882812 C 13.414062 -34.652344 12.910156 -33.554688 12.679688 -33.09375 C 12.542969 -32.867188 12.496094 -32.5 12.359375 -32.316406 C 12.175781 -32.042969 11.855469 -31.90625 11.582031 -31.539062 C 10.984375 -30.625 10.574219 -29.523438 10.164062 -28.519531 C 9.933594 -27.96875 7.414062 -22.523438 7.507812 -22.476562 C 7.597656 -22.523438 7.644531 -22.613281 7.691406 -22.703125 C 7.554688 -22.292969 7.371094 -21.878906 7.1875 -21.46875 C 7.140625 -21.515625 7.324219 -21.835938 7.277344 -21.835938 C 6.820312 -21.925781 5.449219 -18.128906 5.355469 -17.761719 C 5.171875 -16.890625 4.945312 -16.113281 4.578125 -15.242188 C 4.347656 -14.695312 4.121094 -14.144531 3.9375 -13.59375 C 3.9375 -13.550781 3.707031 -12.40625 3.890625 -12.816406 C 3.890625 -12.679688 3.84375 -12.589844 3.800781 -12.449219 C 3.800781 -12.496094 3.800781 -12.589844 3.753906 -12.632812 C 3.660156 -12.589844 3.433594 -11.351562 3.386719 -11.304688 C 3.203125 -10.847656 2.929688 -10.4375 2.746094 -9.980469 C 2.152344 -8.699219 1.785156 -7.277344 1.464844 -5.90625 L 0.503906 -1.234375 C 0.320312 -0.367188 -0.410156 1.601562 0.273438 2.472656 C 0.273438 2.378906 0.273438 2.335938 0.320312 2.289062 C 0.320312 2.335938 0.320312 2.425781 0.367188 2.519531 C 0.777344 4.027344 3.25 3.570312 4.074219 2.699219 C 4.074219 2.792969 4.121094 2.839844 4.164062 2.882812 C 4.484375 0.320312 5.402344 -2.289062 6.316406 -4.714844 C 6.683594 -5.769531 7.050781 -7.507812 7.78125 -8.332031 C 7.828125 -8.789062 8.054688 -8.925781 8.421875 -8.699219 C 8.699219 -8.652344 9.019531 -8.605469 9.292969 -8.605469 C 9.566406 -8.558594 9.933594 -8.558594 10.253906 -8.605469 C 12.175781 -8.925781 14.234375 -10.207031 15.882812 -11.214844 C 16.523438 -11.582031 16.984375 -12.128906 17.578125 -12.449219 C 18.21875 -12.816406 18.859375 -13 19.5 -13.503906 C 21.238281 -14.832031 22.660156 -16.34375 24.03125 -18.035156 C 25.40625 -19.683594 26.59375 -21.378906 27.417969 -23.390625 C 27.878906 -24.398438 28.242188 -25.496094 28.5625 -26.59375 C 28.65625 -27.007812 28.976562 -27.601562 28.882812 -28.015625 C 28.882812 -28.015625 28.746094 -27.695312 28.65625 -27.464844 C 28.792969 -28.242188 28.882812 -28.976562 28.839844 -29.800781 C 28.882812 -29.617188 28.976562 -29.34375 28.929688 -29.296875 C 29.023438 -29.34375 28.976562 -29.9375 28.976562 -30.210938 C 28.976562 -30.121094 28.929688 -30.53125 28.976562 -30.394531 C 28.792969 -32.59375 26.777344 -35.203125 24.398438 -34.515625 Z M 24.351562 -28.929688 C 24.308594 -28.746094 24.308594 -28.792969 24.351562 -28.882812 C 24.125 -25.726562 22.339844 -22.613281 20.554688 -20.09375 C 19.636719 -18.769531 18.585938 -17.53125 17.484375 -16.34375 C 16.984375 -15.839844 16.433594 -15.335938 15.882812 -14.878906 C 15.472656 -14.464844 14.601562 -14.007812 14.191406 -13.503906 C 14.554688 -13.871094 15.378906 -14.328125 15.746094 -14.601562 C 16.480469 -15.242188 17.210938 -15.976562 17.898438 -16.664062 C 18.996094 -17.851562 20.050781 -19.089844 20.964844 -20.414062 C 18.171875 -16.25 14.328125 -12.632812 9.703125 -10.710938 C 10.070312 -10.941406 10.984375 -11.398438 10.984375 -11.445312 C 10.894531 -11.535156 9.0625 -10.710938 8.878906 -10.621094 C 9.476562 -11.808594 10.070312 -13 10.710938 -14.191406 C 10.894531 -14.464844 12.359375 -17.257812 12.359375 -17.257812 C 12.269531 -17.257812 12.175781 -17.210938 12.128906 -17.074219 C 14.144531 -20.324219 16.800781 -23.574219 19.269531 -26.550781 C 20.050781 -27.464844 24.582031 -33.371094 24.351562 -28.976562 Z M 1.832031 -5.265625 C 2.289062 -7.234375 3.25 -8.558594 3.84375 -10.34375 C 3.019531 -7.691406 2.015625 -4.988281 1.234375 -2.378906 C 1.417969 -3.296875 1.601562 -4.441406 1.832031 -5.265625 Z M 0.914062 0.59375 C 0.871094 0.777344 0.550781 1.007812 0.503906 1.234375 C 0.640625 0.457031 0.777344 -0.230469 0.960938 -0.960938 C 0.871094 -0.457031 1.007812 0.0898438 0.914062 0.59375 Z M 10.984375 -21.46875 L 10.023438 -19.089844 L 10.941406 -21.421875 Z M 11.03125 -21.652344 C 11.03125 -21.558594 10.984375 -21.558594 10.984375 -21.515625 C 10.984375 -21.558594 10.984375 -21.558594 11.03125 -21.652344 Z M 11.125 -21.835938 L 11.078125 -21.789062 L 11.125 -21.878906 Z M 11.71875 -16.433594 C 11.71875 -16.480469 11.765625 -16.480469 11.765625 -16.523438 C 11.765625 -16.480469 11.71875 -16.433594 11.71875 -16.433594 Z M 11.71875 -16.433594 "/></g></g></g><path stroke-linecap="butt" transform="matrix(3.38589, 1.611908, -1.611908, 3.38589, 171.201116, 170.735732)" fill="none" stroke-linejoin="miter" d="M -0.000612271 -0.000109296 L 10.400915 -0.000308655 " stroke="#8f27ad" stroke-width="1" stroke-opacity="1" stroke-miterlimit="4"/><path stroke-linecap="butt" transform="matrix(3.305004, 1.776616, -1.775549, 3.303018, 162.747356, 170.736843)" fill="none" stroke-linejoin="miter" d="M -0.000114888 0.000497174 L 10.395895 0.00020381 " stroke="#8f27ad" stroke-width="1" stroke-opacity="1" stroke-miterlimit="4"/><path stroke-linecap="butt" transform="matrix(3.22242, 1.860465, -1.875, 3.247595, 162.622112, 172.448837)" fill="none" stroke-linejoin="miter" d="M -0.00018581 0.000223848 L 10.885143 -0.000322027 " stroke="#8f27ad" stroke-width="1" stroke-opacity="1" stroke-miterlimit="4"/><path stroke-linecap="butt" transform="matrix(3.310961, 1.788353, -1.782143, 3.299464, 170.395174, 173.209033)" fill="none" stroke-linejoin="miter" d="M 0.0000902571 0.000528408 L 8.968843 0.00045883 " stroke="#8f27ad" stroke-width="1" stroke-opacity="1" stroke-miterlimit="4"/></svg>